<?xml version="1.0" encoding="UTF-8"?>
<svg id="Layer_2" data-name="Layer 2" xmlns="http://www.w3.org/2000/svg" viewBox="0 0 698.3 146.26">
  <defs>
    <style>
      .cls-1 {
        fill: #fff;
      }
    </style>
  </defs>
  <g id="Layer_1-2" data-name="Layer 1">
    <g>
      <g>
        <path class="cls-1" d="M100.8,136.8v9.27h-1.96v-9.27l-10.85-17.66h2.15l9.73,15.85,9.73-15.85h2.04l-10.85,17.66Z"/>
        <path class="cls-1" d="M112.81,132.6c0-7.81,5.96-13.66,14-13.66s14.01,5.81,14.01,13.66-6,13.66-14.01,13.66-14-5.85-14-13.66ZM138.81,132.6c0-6.81-5.16-11.85-12-11.85s-12.04,5.04-12.04,11.85,5.16,11.85,12.04,11.85,12-5.04,12-11.85Z"/>
        <path class="cls-1" d="M147.4,134.64v-15.51h1.96v15.43c0,6.73,3.23,9.89,8.85,9.89s8.81-3.16,8.81-9.89v-15.43h1.96v15.51c0,7.69-4.12,11.62-10.81,11.62s-10.77-3.93-10.77-11.62Z"/>
        <path class="cls-1" d="M196.84,146.07l-6.43-9c-.85.12-1.69.19-2.62.19h-7.69v8.81h-1.96v-26.93h9.66c6.77,0,10.85,3.39,10.85,9.08,0,4.27-2.31,7.23-6.31,8.43l6.73,9.43h-2.23ZM187.8,135.53c5.77,0,8.85-2.69,8.85-7.31s-3.08-7.31-8.85-7.31h-7.69v14.62h7.69Z"/>
        <path class="cls-1" d="M232.39,138.49h-15.62l-3.42,7.58h-2.12l12.39-26.93h1.96l12.39,26.93h-2.12l-3.46-7.58ZM231.66,136.84l-7.08-15.54-7.04,15.54h14.12Z"/>
        <path class="cls-1" d="M240.12,142.61l.88-1.46c1.85,1.92,5.27,3.39,8.89,3.39,5.39,0,7.77-2.35,7.77-5.27,0-8.08-16.81-3.23-16.81-13.16,0-3.81,2.92-7.16,9.54-7.16,2.96,0,6.04.92,8.12,2.42l-.73,1.58c-2.23-1.54-4.96-2.27-7.39-2.27-5.23,0-7.58,2.42-7.58,5.39,0,8.08,16.81,3.31,16.81,13.08,0,3.81-3.04,7.12-9.7,7.12-4,0-7.85-1.5-9.81-3.66Z"/>
        <path class="cls-1" d="M271.06,120.91h-9.7v-1.77h21.35v1.77h-9.7v25.16h-1.96v-25.16Z"/>
        <path class="cls-1" d="M306.26,146.07l-6.43-9c-.85.12-1.69.19-2.62.19h-7.69v8.81h-1.96v-26.93h9.66c6.77,0,10.85,3.39,10.85,9.08,0,4.27-2.31,7.23-6.31,8.43l6.73,9.43h-2.23ZM297.22,135.53c5.77,0,8.85-2.69,8.85-7.31s-3.08-7.31-8.85-7.31h-7.69v14.62h7.69Z"/>
        <path class="cls-1" d="M331.93,138.49h-15.62l-3.42,7.58h-2.12l12.39-26.93h1.96l12.39,26.93h-2.12l-3.46-7.58ZM331.19,136.84l-7.08-15.54-7.04,15.54h14.12Z"/>
        <path class="cls-1" d="M342.39,119.14h1.96v25.16h15.51v1.77h-17.47v-26.93Z"/>
        <path class="cls-1" d="M372.21,132.6c0-7.85,5.96-13.66,13.97-13.66,3.81,0,7.23,1.23,9.58,3.73l-1.23,1.27c-2.31-2.27-5.12-3.19-8.27-3.19-6.89,0-12.08,5.08-12.08,11.85s5.19,11.85,12.08,11.85c3.16,0,5.96-.96,8.27-3.23l1.23,1.27c-2.35,2.5-5.77,3.77-9.58,3.77-8,0-13.97-5.81-13.97-13.66Z"/>
        <path class="cls-1" d="M399.18,132.6c0-7.81,5.96-13.66,14-13.66s14.01,5.81,14.01,13.66-6,13.66-14.01,13.66-14-5.85-14-13.66ZM425.19,132.6c0-6.81-5.16-11.85-12-11.85s-12.04,5.04-12.04,11.85,5.16,11.85,12.04,11.85,12-5.04,12-11.85Z"/>
        <path class="cls-1" d="M459.47,146.07l-.04-23.05-11.27,19.47h-.96l-11.27-19.39v22.97h-1.92v-26.93h1.65l12.04,20.82,12.04-20.82h1.62l.04,26.93h-1.92Z"/>
        <path class="cls-1" d="M491.29,128.22c0,5.66-4.08,9.04-10.85,9.04h-7.7v8.81h-1.96v-26.93h9.66c6.77,0,10.85,3.39,10.85,9.08ZM489.29,128.22c0-4.65-3.08-7.31-8.85-7.31h-7.7v14.58h7.7c5.77,0,8.85-2.65,8.85-7.27Z"/>
        <path class="cls-1" d="M513.22,138.49h-15.62l-3.42,7.58h-2.12l12.39-26.93h1.96l12.39,26.93h-2.12l-3.46-7.58ZM512.49,136.84l-7.08-15.54-7.04,15.54h14.12Z"/>
        <path class="cls-1" d="M545.62,119.14v26.93h-1.62l-18.35-23.39v23.39h-1.96v-26.93h1.65l18.31,23.39v-23.39h1.96Z"/>
        <path class="cls-1" d="M555.01,119.14h1.96v26.93h-1.96v-26.93Z"/>
        <path class="cls-1" d="M563.78,132.6c0-7.81,5.96-13.66,14-13.66s14.01,5.81,14.01,13.66-6,13.66-14.01,13.66-14-5.85-14-13.66ZM589.79,132.6c0-6.81-5.16-11.85-12-11.85s-12.04,5.04-12.04,11.85,5.16,11.85,12.04,11.85,12-5.04,12-11.85Z"/>
        <path class="cls-1" d="M620.53,119.14v26.93h-1.62l-18.35-23.39v23.39h-1.96v-26.93h1.65l18.31,23.39v-23.39h1.96Z"/>
      </g>
      <g>
        <path class="cls-1" d="M28.24,99.68c-8.75-4.2-15.64-10.28-20.68-18.23-5.04-7.95-7.56-17.42-7.56-28.39s2.52-20.46,7.56-28.46c5.04-8,11.93-14.1,20.68-18.31C36.98,2.1,46.74,0,57.51,0c10.08,0,19.29,1.9,27.65,5.71,8.35,3.81,15.14,9.32,20.38,16.53,5.24,7.21,8.25,15.76,9.04,25.64h-21.49l-1.04-4.15c-3.26-12.45-8.43-22.03-15.49-28.76-7.07-6.72-14.85-10.08-23.35-10.08-2.57,0-5.34.4-8.3,1.19-7.61,2.08-13.66,6.4-18.16,12.97-4.5,6.57-6.74,14.7-6.74,24.38,0,5.83.89,12.15,2.67,18.97,3.56,13.34,9.17,22.93,16.82,28.76,7.66,5.83,16.33,8.75,26.01,8.75,12.25,0,24.06-5.41,35.43-16.23,11.36-10.82,22.33-29.92,32.91-57.29l9.78-25.35h4.15l41.95,92.35c2.17,3.95,4.64,6.6,7.41,7.93,2.77,1.33,5.98,2,9.63,2v1.48h-50.84v-1.48c4.45,0,7.63-.39,9.56-1.19,1.93-.79,2.89-2.32,2.89-4.59,0-1.48-.25-2.91-.74-4.3-2.27-5.63-5.78-13.79-10.52-24.46-4.45.3-8.25,1.36-11.41,3.19-3.16,1.83-5.76,3.93-7.78,6.3-2.03,2.37-4.42,5.63-7.19,9.78l-2.96,5.04c-1.19,1.88-2.15,3.53-2.89,4.97-.74,1.43-1.11,2.5-1.11,3.19,0,.89.57,1.46,1.7,1.7,1.13.25,3.14.37,6,.37v1.48h-36.17v-1.48c2.47,0,4.92-1.31,7.34-3.93,2.42-2.62,5.61-6.99,9.56-13.12,4.84-7.61,10.82-12.75,17.94-15.41,7.12-2.67,15.71-4.15,25.79-4.45l-2.37-5.34c-3.66-8.1-6.67-14.92-9.04-20.45-2.37-5.53-4.65-11.31-6.82-17.34l-2.82,7.26c-9.49,25.2-20.51,44.08-33.05,56.62-12.55,12.55-27.33,18.82-44.32,18.82-10.77,0-20.53-2.1-29.28-6.3Z"/>
        <path class="cls-1" d="M310.98,33.2h-1.48c-3.46-7.41-6.94-13.19-10.45-17.34-3.51-4.15-7.56-7.16-12.16-9.04-4.59-1.88-10.25-2.82-16.97-2.82h-20.46v41.21h15.42c5.93,0,10.92-1.6,14.97-4.82,4.05-3.21,6.08-7.93,6.08-14.16h1.33v41.65h-1.33c0-6.23-2.03-10.94-6.08-14.16-4.05-3.21-9.04-4.82-14.97-4.82h-15.42v52.92h13.34c12.35,0,22.68-3.56,30.98-10.67,8.3-7.11,14.92-15.86,19.86-26.24h1.48l-8.15,39.87h-92.79v-1.48c3.46,0,6.74-.57,9.86-1.7,3.11-1.13,4.67-2.74,4.67-4.82V9.04c0-2.08-1.56-3.68-4.67-4.82-3.11-1.13-6.4-1.7-9.86-1.7v-1.48h91.75l5.04,32.17Z"/>
        <path class="cls-1" d="M362.86,4.3c-3.36,1.19-5.04,2.77-5.04,4.74v92.79h13.34c12.35,0,22.68-3.56,30.98-10.67,8.3-7.11,14.92-15.86,19.86-26.24h1.48l-8.15,39.87h-92.79v-1.48c3.46,0,6.74-.57,9.86-1.7,3.11-1.13,4.67-2.74,4.67-4.82V9.04c0-2.08-1.56-3.68-4.67-4.82-3.11-1.13-6.4-1.7-9.86-1.7v-1.48h49.95v1.48c-3.06,0-6.28.59-9.63,1.78Z"/>
        <path class="cls-1" d="M529.92,82.64c-3.95,7.76-9.31,13.59-16.08,17.49-6.77,3.9-14.45,5.85-23.05,5.85-10.08,0-19.05-2.1-26.9-6.3-7.86-4.2-13.98-10.25-18.38-18.16-4.4-7.9-6.6-17.19-6.6-27.87V9.04c0-2.08-1.56-3.68-4.67-4.82-3.11-1.13-6.4-1.7-9.86-1.7v-1.48h50.4v1.48c-3.06,0-6.28.59-9.63,1.78-3.36,1.19-5.04,2.77-5.04,4.74l.59,45.21c.1,10.77,1.83,19.57,5.19,26.38,3.36,6.82,7.61,11.74,12.75,14.75,5.14,3.02,10.53,4.52,16.16,4.52,7.21,0,13.69-1.75,19.42-5.26,5.73-3.51,10.28-8.7,13.64-15.56,3.36-6.87,5.04-15.09,5.04-24.68l-.15-40.91c0-4.05-2.89-6.89-8.67-8.52s-12.92-2.45-21.42-2.45v-1.48h47.58v1.48c-3.56,0-6.8.77-9.71,2.3-2.92,1.53-4.52,4.13-4.82,7.78l.15,41.8c0,11.07-1.98,20.48-5.93,28.24Z"/>
        <path class="cls-1" d="M604.32,20.09c2.86,6.18,6.47,13.47,10.82,21.86,4.15,8.3,7.63,15.44,10.45,21.42,2.82,5.98,5.41,12.13,7.78,18.45L661.84,1.04h36.32v1.48c-3.46,0-6.74.57-9.86,1.7-3.11,1.14-4.67,2.74-4.67,4.82v87.75c0,1.98,1.68,3.56,5.04,4.74,3.36,1.19,6.57,1.78,9.63,1.78v1.48h-49.95v-1.48c3.46,0,6.74-.57,9.86-1.7,3.11-1.13,4.67-2.74,4.67-4.82V4.89l-35.28,99.91h-4.15l-47.58-99.16v84.64c0,8.7,7.56,13.04,22.68,13.04v1.48h-40.91v-1.48c5.04,0,8.72-.91,11.04-2.74,2.32-1.83,3.48-5.26,3.48-10.3V9.04c0-2.08-1.56-3.68-4.67-4.82-3.11-1.13-6.4-1.7-9.86-1.7v-1.48h38.84c2.37,6.52,4.99,12.87,7.86,19.05Z"/>
      </g>
    </g>
  </g>
</svg>