<?xml version="1.0" encoding="UTF-8"?>
<svg id="Layer_1" data-name="Layer 1" xmlns="http://www.w3.org/2000/svg" viewBox="0 0 1513.93 249.66">
  <defs>
    <style>
      .cls-1 {
        fill: #e4e2d1;
      }
    </style>
  </defs>
  <path class="cls-1" d="M858.51,118.89c-8.67-.55-8.91,3.18-17.58,2.62-8.67-.55-8.44-4.28-17.11-4.84-8.67-.55-8.91,3.18-17.58,2.63-6.85-.44-8.14-2.85-12.65-4.12-.11-.4-.22-.79-.33-1.19,2.28-.3,4.11-.02,7.67-1.91,5.63-2.98,4.35-5.4,9.99-8.38,5.63-2.97,6.91-.55,12.54-3.54,5.63-2.98,4.35-5.4,9.98-8.38s6.92-.56,12.55-3.54c-6.01,2.12-6.92-.46-12.93,1.65-6.01,2.12-5.1,4.7-11.11,6.82-6.01,2.12-6.92-.46-12.93,1.65-6.01,2.12-5.1,4.7-11.11,6.83-3.93,1.39-5.69.76-8.12.76-.18-.31-.35-.6-.54-.9,3.46-3.11,6.19-2.95,10.19-8.5,5.08-7.05,2.05-9.24,7.12-16.29,5.08-7.05,8.11-4.87,13.19-11.91,5.08-7.05,2.05-9.24,7.12-16.29,5.08-7.05,8.11-4.87,13.19-11.92-6.52,5.74-8.99,2.94-15.51,8.68-6.53,5.74-4.06,8.54-10.58,14.29-6.52,5.74-8.99,2.93-15.51,8.67-6.53,5.74-4.06,8.55-10.58,14.29-5.15,4.53-7.78,3.74-11.87,6.03-.35-.21-.71-.41-1.08-.61,1.41-1.83,2.89-2.92,4.08-6.78,1.88-6.09-.74-6.89,1.14-12.98,1.87-6.09,4.49-5.29,6.37-11.38,1.88-6.09-.74-6.89,1.14-12.98,1.88-6.09,4.49-5.28,6.37-11.37-2.75,5.75-5.22,4.57-7.97,10.31-2.75,5.75-.28,6.94-3.03,12.68-2.75,5.75-5.23,4.56-7.98,10.31-2.75,5.75-.28,6.93-3.03,12.68-1.8,3.76-3.48,4.56-5.2,6.27-.33-.09-.67-.18-1.01-.26.24-4.65,2.29-6.46,1.19-13.21-1.4-8.58-5.09-7.98-6.48-16.56-1.39-8.58,2.29-9.17.9-17.75-1.39-8.58-5.08-7.98-6.48-16.56-1.39-8.58,2.29-9.17.9-17.75-.55,8.67-4.29,8.43-4.84,17.11-.55,8.67,3.18,8.91,2.62,17.58-.55,8.67-4.28,8.44-4.83,17.11-.55,8.67,3.17,8.91,2.62,17.58-.43,6.84-2.85,8.14-4.11,12.65-.4.1-.8.22-1.19.33-.3-2.29-.02-4.11-1.91-7.67-2.98-5.63-5.4-4.35-8.38-9.98-2.98-5.64-.56-6.92-3.54-12.55-2.98-5.63-5.4-4.35-8.38-9.98-2.98-5.63-.56-6.91-3.54-12.55,2.12,6.01-.46,6.92,1.65,12.93,2.12,6.01,4.7,5.1,6.82,11.11,2.12,6.01-.46,6.92,1.65,12.93,2.12,6.01,4.7,5.1,6.82,11.1,1.39,3.94.76,5.69.76,8.12-.3.18-.6.35-.89.54-3.11-3.46-2.95-6.19-8.5-10.19-7.05-5.08-9.24-2.05-16.29-7.12-7.05-5.08-4.87-8.11-11.92-13.19-7.05-5.08-9.23-2.05-16.28-7.13-7.05-5.08-4.87-8.11-11.92-13.19,5.74,6.52,2.93,8.99,8.67,15.51,5.74,6.53,8.55,4.05,14.29,10.58,5.74,6.52,2.94,8.99,8.67,15.52,5.75,6.52,8.55,4.05,14.29,10.58,4.53,5.15,3.74,7.77,6.03,11.86-.21.36-.41.71-.61,1.08-1.83-1.41-2.92-2.89-6.78-4.08-6.09-1.88-6.89.74-12.99-1.13-6.09-1.87-5.28-4.49-11.37-6.37-6.09-1.88-6.9.75-12.99-1.13-6.09-1.87-5.28-4.5-11.37-6.37,5.75,2.75,4.56,5.22,10.31,7.98,5.75,2.75,6.93.28,12.68,3.03,5.75,2.75,4.57,5.23,10.32,7.98,5.75,2.75,6.93.27,12.68,3.03,3.76,1.8,4.56,3.48,6.27,5.2-.09.33-.18.67-.26,1-4.65-.24-6.46-2.29-13.21-1.19-8.58,1.39-7.98,5.08-16.56,6.48-8.58,1.4-9.17-2.29-17.75-.9-8.58,1.39-7.98,5.08-16.56,6.48-8.58,1.39-9.17-2.29-17.75-.9,8.67.55,8.44,4.28,17.11,4.84,8.67.55,8.91-3.18,17.58-2.62,8.67.55,8.44,4.28,17.11,4.83,8.67.55,8.91-3.18,17.58-2.63,6.85.44,8.15,2.85,12.65,4.12.11.4.22.8.34,1.19-2.28.3-4.11.02-7.67,1.91-5.63,2.98-4.35,5.4-9.98,8.39-5.64,2.97-6.92.55-12.55,3.53-5.63,2.98-4.35,5.4-9.98,8.38-5.63,2.98-6.92.56-12.55,3.54,6.01-2.12,6.92.46,12.93-1.66,6.01-2.11,5.1-4.7,11.11-6.82,6.01-2.12,6.92.46,12.93-1.65,6.01-2.12,5.1-4.7,11.11-6.82,3.94-1.39,5.69-.76,8.12-.76.17.3.35.6.53.9-3.46,3.11-6.19,2.95-10.18,8.49-5.08,7.05-2.05,9.24-7.12,16.29-5.08,7.05-8.11,4.87-13.19,11.91-5.08,7.05-2.05,9.24-7.12,16.29-5.08,7.05-8.11,4.87-13.19,11.92,6.52-5.74,8.99-2.94,15.51-8.67,6.52-5.75,4.06-8.55,10.58-14.29,6.52-5.74,8.99-2.94,15.52-8.68,6.52-5.74,4.05-8.55,10.58-14.28,5.15-4.53,7.77-3.74,11.86-6.03.35.21.72.41,1.07.6-1.4,1.83-2.89,2.92-4.07,6.78-1.88,6.09.74,6.89-1.13,12.99-1.88,6.09-4.49,5.29-6.37,11.37-1.88,6.09.75,6.89-1.13,12.99-1.87,6.09-4.5,5.28-6.37,11.37,2.75-5.75,5.22-4.56,7.97-10.31,2.75-5.75.27-6.93,3.03-12.68,2.75-5.75,5.22-4.56,7.98-10.31,2.75-5.75.28-6.94,3.02-12.68,1.8-3.76,3.48-4.56,5.21-6.27.33.09.67.18,1.01.26-.24,4.65-2.29,6.46-1.19,13.21,1.39,8.58,5.08,7.98,6.48,16.55,1.4,8.58-2.29,9.18-.9,17.75,1.39,8.58,5.08,7.98,6.48,16.55,1.39,8.58-2.3,9.18-.9,17.75.55-8.67,4.28-8.44,4.84-17.11.55-8.67-3.18-8.91-2.62-17.58.55-8.67,4.28-8.43,4.83-17.1.55-8.67-3.18-8.91-2.62-17.58.43-6.85,2.84-8.14,4.11-12.65.4-.11.8-.22,1.19-.34.3,2.28.02,4.11,1.91,7.67,2.98,5.63,5.4,4.35,8.38,9.99,2.98,5.63.56,6.91,3.54,12.55,2.98,5.63,5.4,4.35,8.38,9.99,2.98,5.63.56,6.91,3.54,12.54-2.12-6.01.46-6.92-1.65-12.93-2.12-6.01-4.71-5.1-6.82-11.11-2.13-6.01.46-6.92-1.66-12.93-2.12-6.01-4.7-5.1-6.82-11.11-1.39-3.94-.76-5.69-.76-8.12.31-.17.6-.35.9-.53,3.12,3.46,2.95,6.19,8.5,10.18,7.05,5.08,9.24,2.05,16.29,7.12,7.05,5.08,4.86,8.11,11.91,13.19,7.05,5.08,9.24,2.05,16.29,7.13,7.05,5.07,4.87,8.11,11.91,13.19-5.74-6.52-2.93-8.99-8.67-15.51-5.75-6.52-8.55-4.05-14.29-10.58-5.74-6.52-2.93-8.99-8.67-15.52-5.75-6.52-8.55-4.05-14.29-10.57-4.54-5.15-3.75-7.78-6.04-11.87.21-.35.41-.71.61-1.07,1.83,1.41,2.92,2.89,6.78,4.07,6.09,1.88,6.9-.74,12.99,1.13,6.09,1.88,5.29,4.5,11.38,6.37,6.08,1.88,6.89-.74,12.98,1.14,6.09,1.88,5.29,4.49,11.38,6.37-5.75-2.75-4.56-5.22-10.31-7.98-5.75-2.75-6.93-.28-12.68-3.03-5.75-2.75-4.56-5.22-10.31-7.97-5.75-2.75-6.93-.28-12.68-3.03-3.77-1.8-4.56-3.49-6.27-5.2.09-.33.18-.67.26-1.01,4.64.24,6.46,2.29,13.21,1.19,8.58-1.39,7.98-5.08,16.55-6.47,8.58-1.4,9.18,2.29,17.75.89,8.58-1.39,7.98-5.08,16.56-6.48,8.58-1.39,9.18,2.3,17.75.9-8.67-.55-8.43-4.29-17.1-4.83Z"/>
  <g>
    <g>
      <g>
        <path class="cls-1" d="M417.5,116.2c-15.72-.01-28.61,6.05-33.98,9.05h0c-1.79,1-2.69,1.61-2.69,1.62h0l-2.78-4.07c.22-.13,16.8-11.5,39.45-11.53h0c18.72-.05,41.5,8.06,61.39,36.29h0l-4.03,2.85c-19.22-27.11-40.05-34.15-57.36-34.21h0Z"/>
        <path class="cls-1" d="M417.5,138.4c-22.55-.03-39.09-11.3-39.45-11.53h0l2.78-4.08s.9.62,2.69,1.62h0c1.79,1,4.42,2.34,7.71,3.69h0c6.57,2.69,15.79,5.37,26.27,5.36h0c17.31-.05,38.14-7.09,57.36-34.2h0l4.03,2.84c-19.82,28.15-42.52,36.3-61.21,36.29h-.18ZM378.04,126.87h0,0Z"/>
        <path class="cls-1" d="M474.86,147.56c19.89-28.24,42.67-36.35,61.39-36.29h0c22.65.04,39.24,11.41,39.46,11.53h0l-2.78,4.07s-.91-.62-2.7-1.62h0c-1.78-1-4.41-2.34-7.7-3.69h0c-6.57-2.69-15.79-5.37-26.28-5.37h0c-17.31.05-38.14,7.1-57.36,34.21h0l-4.03-2.85h0Z"/>
        <path class="cls-1" d="M474.86,102.1l4.03-2.84c19.23,27.11,40.05,34.15,57.36,34.2h0c15.72.02,28.61-6.04,33.98-9.05h0c1.79-1,2.69-1.61,2.69-1.62h0s2.78,4.08,2.78,4.08c-.21.13-16.8,11.5-39.45,11.53h-.18c-18.69,0-41.39-8.15-61.21-36.29h0Z"/>
        <path class="cls-1" d="M474.92,102.18c-.08-.2-5.61-7.13-5.71-15.2h0c0-2.63.68-5.06,1.93-6.98h0c1.22-1.9,3.22-3.44,5.74-3.45h0c2.52,0,4.53,1.55,5.75,3.45h0c1.25,1.93,1.93,4.35,1.93,6.98h0c-.12,7.7-5.62,14.94-5.67,15.15h0l-1.95,2.7-2.02-2.65h0ZM475.26,82.69c-.64.96-1.13,2.52-1.13,4.29h0c-.04,3.1,1.4,6.58,2.7,9.02h0c.14-.27.29-.55.43-.84h0c1.23-2.43,2.37-5.61,2.35-8.17h0c0-1.76-.49-3.33-1.13-4.29h0c-.66-.99-1.26-1.23-1.62-1.22h-.02c-.36,0-.95.25-1.6,1.22h0Z"/>
        <path class="cls-1" d="M471.13,169.67c-1.26-1.92-1.93-4.34-1.93-6.98h0c.1-8.08,5.63-15,5.71-15.2h0l2.03-2.65,1.95,2.7c.06.21,5.56,7.45,5.67,15.15h0c-.01,2.64-.68,5.06-1.93,6.98h0c-1.22,1.9-3.23,3.45-5.75,3.46h0c-2.52,0-4.52-1.55-5.74-3.46h0ZM478.5,166.97c.64-.96,1.12-2.52,1.12-4.28h0c.04-2.89-1.44-6.48-2.78-9.02h0c-.13.22-.24.46-.37.7h0c-1.21,2.37-2.35,5.51-2.34,8.31h0c0,1.76.49,3.32,1.13,4.28h0c.66.99,1.26,1.23,1.61,1.22h0c.36,0,.96-.22,1.63-1.22h0Z"/>
      </g>
      <path class="cls-1" d="M617.02,97.35c8.14,12.8-1.59,27.97-13.25,31.42-11.64,4.35-22.9,0-28.82-4.28,3.85,6.04,15.51,14.18,30.69,10.6,7.26-1.82,15.07-6.23,19.73-14.46,4.76-8.03,4.83-19.22-.57-28.06-4.97-9.04-16.57-13.92-25.89-11.4-9.27,2.16-16.62,10.44-16.37,19.07-.18,8.51,5.61,14.91,11.71,16.57,6.4,1.82,11.1-2.01,13.42-4.56-5.96,5.35-20.32.8-18.54-11.61.54-11.52,21.03-16.81,27.89-3.29Z"/>
      <path class="cls-1" d="M624.8,157.09c5.4-8.84,5.33-20.03.57-28.06-4.66-8.24-12.47-12.64-19.73-14.46-15.18-3.58-26.84,4.56-30.69,10.6,5.93-4.29,17.18-8.63,28.82-4.27,11.66,3.44,21.39,18.62,13.25,31.41-6.87,13.53-27.36,8.23-27.89-3.29-1.79-12.41,12.58-16.96,18.54-11.61-2.31-2.55-7.01-6.38-13.42-4.56-6.1,1.66-11.89,8.05-11.71,16.56-.25,8.63,7.1,16.9,16.37,19.07,9.32,2.53,20.93-2.36,25.89-11.4Z"/>
      <path class="cls-1" d="M364.43,112c-3.8,5.97.74,13.06,6.19,14.67,5.44,2.03,10.69,0,13.46-2-1.8,2.82-7.25,6.62-14.33,4.95-3.4-.85-7.04-2.91-9.22-6.76-2.22-3.75-2.26-8.97.27-13.1,2.32-4.22,7.74-6.5,12.09-5.32,4.33,1.01,7.76,4.88,7.64,8.9.09,3.97-2.62,6.96-5.47,7.74-2.99.85-5.18-.94-6.26-2.13,2.78,2.5,9.49.37,8.66-5.42-.25-5.38-9.82-7.85-13.03-1.54Z"/>
      <path class="cls-1" d="M360.79,139.89c-2.52-4.13-2.49-9.35-.27-13.1,2.18-3.85,5.82-5.91,9.22-6.75,7.08-1.67,12.53,2.13,14.33,4.95-2.77-2-8.02-4.03-13.46-1.99-5.44,1.6-9.99,8.69-6.19,14.67,3.21,6.31,12.78,3.84,13.03-1.54.83-5.8-5.88-7.92-8.66-5.42,1.08-1.19,3.27-2.98,6.26-2.13,2.85.78,5.56,3.76,5.47,7.74.12,4.03-3.32,7.89-7.64,8.91-4.35,1.18-9.77-1.1-12.09-5.33Z"/>
      <path class="cls-1" d="M583.52,124.83c0,3.69-2.99,6.68-6.68,6.68s-6.68-2.99-6.68-6.68,3-6.68,6.68-6.68,6.68,2.99,6.68,6.68Z"/>
      <path class="cls-1" d="M37.52,124.83l342.37,2.84v-5.79l-342.37,2.65v.3ZM574.17,120.35v8.96h.92s0-8.97,0-8.97h-.92Z"/>
    </g>
    <g>
      <g>
        <path class="cls-1" d="M1096.43,116.2c15.72-.01,28.61,6.04,33.98,9.05h0c1.79,1,2.69,1.62,2.69,1.62h0l2.79-4.07c-.22-.13-16.8-11.5-39.46-11.53h0c-18.72-.05-41.5,8.06-61.39,36.29h0l4.03,2.84c19.22-27.1,40.05-34.15,57.36-34.2h0Z"/>
        <path class="cls-1" d="M1096.43,138.4c22.55-.03,39.09-11.31,39.46-11.53h0l-2.78-4.08s-.9.62-2.7,1.62h0c-1.79,1-4.42,2.34-7.71,3.69h0c-6.58,2.69-15.79,5.37-26.28,5.36h0c-17.31-.05-38.14-7.09-57.36-34.2h0l-4.03,2.85c19.82,28.15,42.52,36.29,61.21,36.29h.18ZM1135.89,126.87h0s0,0,0,0h0Z"/>
        <path class="cls-1" d="M1039.07,147.56c-19.89-28.24-42.67-36.35-61.39-36.29h0c-22.65.03-39.24,11.4-39.46,11.53h0l2.78,4.07s.9-.62,2.7-1.62h0c1.79-1,4.41-2.34,7.7-3.68h0c6.57-2.7,15.79-5.37,26.28-5.37h0c17.31.05,38.14,7.1,57.37,34.2h0l4.03-2.84h0Z"/>
        <path class="cls-1" d="M1039.07,102.1l-4.03-2.85c-19.22,27.11-40.05,34.15-57.37,34.2h0c-15.72.01-28.61-6.04-33.98-9.05h0c-1.79-1-2.69-1.61-2.69-1.62h0s-2.78,4.07-2.78,4.07c.21.13,16.8,11.5,39.45,11.53h.18c18.69,0,41.39-8.15,61.21-36.29h0Z"/>
        <path class="cls-1" d="M1039.01,102.18c.08-.21,5.61-7.13,5.72-15.2h0c0-2.63-.68-5.06-1.93-6.98h0c-1.22-1.9-3.23-3.44-5.75-3.45h0c-2.52,0-4.53,1.55-5.75,3.45h0c-1.25,1.92-1.92,4.35-1.93,6.98h0c.12,7.7,5.61,14.94,5.67,15.15h0l1.95,2.71,2.02-2.65h0ZM1038.67,82.69c.63.96,1.13,2.52,1.12,4.28h0c.04,3.11-1.4,6.58-2.7,9.02h0c-.14-.27-.29-.55-.43-.84h0c-1.23-2.43-2.37-5.61-2.35-8.18h0c0-1.76.49-3.32,1.13-4.28h0c.66-.99,1.26-1.23,1.62-1.22h.02c.36,0,.94.24,1.6,1.22h0Z"/>
        <path class="cls-1" d="M1042.8,169.67c1.25-1.92,1.92-4.34,1.93-6.98h0c-.11-8.07-5.64-14.99-5.71-15.2h0l-2.03-2.65-1.95,2.71c-.06.21-5.56,7.45-5.67,15.15h0c.01,2.64.68,5.06,1.93,6.98h0c1.22,1.9,3.23,3.45,5.75,3.45h0c2.52,0,4.52-1.55,5.75-3.45h0ZM1035.43,166.97c-.64-.96-1.13-2.52-1.12-4.29h0c-.04-2.89,1.44-6.48,2.78-9.02h0c.13.23.25.46.37.7h0c1.21,2.37,2.35,5.51,2.33,8.31h0c0,1.76-.49,3.33-1.12,4.29h0c-.67.99-1.27,1.23-1.62,1.22h0c-.36,0-.96-.23-1.62-1.22h0Z"/>
      </g>
      <path class="cls-1" d="M896.91,97.35c-8.14,12.8,1.59,27.98,13.24,31.42,11.64,4.36,22.9,0,28.82-4.27-3.85,6.04-15.51,14.18-30.69,10.6-7.26-1.82-15.07-6.22-19.73-14.47-4.75-8.03-4.83-19.21.57-28.05,4.97-9.04,16.58-13.92,25.89-11.4,9.27,2.16,16.62,10.44,16.37,19.07.18,8.51-5.62,14.91-11.71,16.57-6.4,1.81-11.1-2.01-13.41-4.56,5.96,5.34,20.32.8,18.54-11.61-.54-11.52-21.02-16.81-27.89-3.29Z"/>
      <path class="cls-1" d="M889.13,157.09c-5.4-8.84-5.33-20.03-.57-28.06,4.66-8.24,12.47-12.64,19.73-14.47,15.18-3.58,26.84,4.56,30.69,10.6-5.93-4.28-17.18-8.63-28.82-4.27-11.66,3.44-21.39,18.62-13.24,31.41,6.87,13.52,27.35,8.23,27.89-3.29,1.79-12.41-12.58-16.96-18.54-11.61,2.31-2.55,7.02-6.38,13.41-4.56,6.1,1.66,11.89,8.06,11.71,16.57.25,8.63-7.1,16.9-16.37,19.06-9.31,2.53-20.93-2.36-25.89-11.39Z"/>
      <path class="cls-1" d="M1149.5,112c3.8,5.97-.74,13.06-6.19,14.67-5.44,2.03-10.69,0-13.46-2,1.8,2.83,7.25,6.62,14.33,4.95,3.39-.85,7.04-2.91,9.22-6.75,2.22-3.75,2.26-8.98-.27-13.1-2.32-4.22-7.74-6.5-12.09-5.32-4.33,1.01-7.76,4.88-7.64,8.9-.09,3.97,2.62,6.97,5.47,7.74,2.99.85,5.18-.93,6.26-2.13-2.79,2.5-9.49.37-8.66-5.42.25-5.38,9.82-7.85,13.03-1.54Z"/>
      <path class="cls-1" d="M1153.14,139.89c2.52-4.13,2.49-9.35.27-13.1-2.18-3.85-5.82-5.91-9.22-6.76-7.09-1.67-12.53,2.13-14.33,4.95,2.77-2,8.02-4.03,13.46-2,5.45,1.61,9.99,8.7,6.19,14.67-3.2,6.32-12.78,3.84-13.03-1.54-.83-5.8,5.88-7.92,8.66-5.42-1.08-1.19-3.28-2.98-6.26-2.13-2.85.78-5.56,3.76-5.47,7.74-.12,4.03,3.31,7.9,7.64,8.9,4.35,1.18,9.77-1.1,12.09-5.32Z"/>
      <path class="cls-1" d="M930.41,124.83c0,3.69,2.99,6.68,6.68,6.68s6.68-2.99,6.68-6.68-3-6.68-6.68-6.68-6.68,2.99-6.68,6.68Z"/>
      <path class="cls-1" d="M1476.41,124.83l-342.37,2.84v-5.79l342.37,2.65v.3ZM939.76,120.35v8.96h-.93s0-8.97,0-8.97h.93Z"/>
    </g>
  </g>
</svg>