<?xml version="1.0" encoding="UTF-8"?>
<svg id="Layer_1" data-name="Layer 1" xmlns="http://www.w3.org/2000/svg" viewBox="0 0 550.19 526.42">
  <defs>
    <style>
      .cls-1 {
        fill: #e4e2d1;
      }
    </style>
  </defs>
  <path class="cls-1" d="M397.39,240.16c2.28-.17,4.55-.46,6.66-.89,2.43-.52,4.82-1.19,7.09-1.98,1.9-.69,3.73-1.49,5.45-2.32.94-.48,1.87-.98,2.78-1.52.88-.51,1.73-1.08,2.57-1.64.01-.01.03-.02.04-.03.02-.01.03-.02.03-.02,1.73-1.2,3.38-2.5,4.88-3.82,1.47-1.32,2.88-2.71,4.14-4.14.08-.08.15-.17.21-.23l.14-.15c1.3-1.52,2.49-3.12,3.59-4.72.6-.91,1.18-1.82,1.73-2.76.55-.93,1.05-1.89,1.49-2.75.45-.93.88-1.86,1.29-2.81.39-.9.73-1.83,1.07-2.75.07-.22.15-.44.21-.61.68-2.04,1.22-4.14,1.64-6.2.39-2.05.63-4.11.78-6.06.07-1.24.11-2.48.11-3.72,0-1.19-.07-2.38-.15-3.57-.09-1.08-.18-2.16-.34-3.23-.17-1.16-.38-2.31-.6-3.45-.4-1.8-.86-3.58-1.43-5.22-.73-2.04-1.58-4.04-2.53-5.97l-.07-.14c-.08-.16-.16-.31-.24-.46-.89-1.69-1.85-3.34-2.91-4.93-1.24-1.8-2.56-3.52-4-5.16-1.47-1.62-3.02-3.14-4.65-4.58-1.59-1.39-3.29-2.64-5.03-3.83-1.57-1.04-3.19-1.98-4.79-2.8l-.17-.09c-.1-.05-.2-.1-.36-.18-1.95-.94-3.93-1.78-5.95-2.5-.01,0-.02,0-.04-.01-.03,0-.05-.02-.05-.02-2.32-.77-4.67-1.43-6.95-1.94-.18-.04-.36-.07-.55-.11-2.35-.44-4.73-.8-7.11-.97,0,0,0,0,0,0-.05,0-.11,0-.15,0-.08,0-.16,0-.23-.01-.5-.03-1.01-.06-1.51-.08-2.3.19-4.6.48-6.85.94,0,0-.02,0-.03,0,0,0,0,0,0,0-.1.02-.2.04-.3.06,0,0,0,0,0,0-2.52.55-5.02,1.25-7.34,2.05-2.27.81-4.5,1.7-6.59,2.72-2.03,1.04-3.98,2.2-5.79,3.39-.79.55-1.57,1.09-2.33,1.68-.77.6-1.51,1.22-2.25,1.86-1.5,1.35-2.92,2.75-4.17,4.17-.79.92-1.56,1.84-2.31,2.79-.69.89-1.35,1.82-1.99,2.75-.51.77-1.01,1.54-1.47,2.34-.48.82-.93,1.64-1.35,2.46,0,.02-.02.03-.02.05,0,0,0,0,0,0,0,0,0,0,0,0-.08.17-.17.33-.25.5,0,0,0,0,0,0-1,2.06-1.84,4.18-2.55,6.23-.3.89-.59,1.79-.84,2.7-.27,1-.5,2-.71,2.93-.22,1.1-.41,2.2-.56,3.31-.14,1.11-.25,2.21-.33,3.32-.13,2.21-.17,4.42-.02,6.58,0,.14.02.29.02.31.15,2.12.44,4.24.86,6.32.22,1,.45,2,.72,2.99.27,1.03.6,2.04.91,2.97.01.04.03.08.03.1,0,.02.01.04.02.06,0,0,0,0,0,0,0,0,0,0,0,0,.01.04.03.08.04.11,0,0,0,.01,0,.02,0,.02.02.05.02.06.71,2.01,1.56,3.95,2.5,5.86,0,0,0,0,0,0,.95,1.81,1.95,3.6,3.04,5.2.18.26.36.52.47.69.55.77,1.1,1.54,1.68,2.29.57.73,1.17,1.44,1.75,2.13.01.02.03.03.04.05h.01c1.41,1.59,2.95,3.04,4.51,4.42,1.39,1.2,2.82,2.35,4.25,3.32.11.07.23.15.32.22.01,0,.02.01.03.02.02.01.04.03.06.04,0,0,0,0,0,0,0,0,0,0,0,0,0,0,0,0,0,0,0,0,0,0,0,0,.02.01.03.02.05.03h.01c1.79,1.18,3.64,2.28,5.51,3.23,1.98.98,4.01,1.83,6.03,2.56.17.06.33.11.49.17.04.01.07.02.1.03.01,0,.03,0,.04.01.02,0,.05.02.05.02,1.77.58,3.56,1.04,5.35,1.42.03,0,.06.01.1.02h0c1.05.21,2.1.39,3.16.54,1.1.16,2.21.26,3.2.34.24.01.49.03.6.04,1.98.12,3.95.09,5.92-.03ZM387.42,241.65c-2.6-.34-5.16-.93-7.67-1.67-.86-.25-1.71-.53-2.54-.82-2.5-.85-4.9-1.97-7.22-3.21-2.23-1.2-4.32-2.62-6.34-4.14-.99-.74-1.96-1.53-2.89-2.35-.98-.88-1.92-1.8-2.84-2.75-1.77-1.84-3.44-3.82-4.93-5.9-.12-.18-.25-.36-.31-.44-1.31-1.91-2.51-3.87-3.56-5.92-.99-1.93-1.87-3.93-2.59-5.97-.44-1.25-.85-2.5-1.2-3.78-.34-1.27-.64-2.56-.9-3.84-.52-2.51-.77-5.08-.89-7.64-.13-2.6-.02-5.23.29-7.81.6-5.07,1.92-10.08,4.02-14.74,2.17-4.82,5.05-9.34,8.57-13.28,1.7-1.91,3.59-3.68,5.56-5.3,2.02-1.65,4.13-3.16,6.35-4.52,1.38-.84,2.82-1.59,4.27-2.28,1.55-.73,3.13-1.4,4.62-1.92,4.81-1.7,9.98-2.42,15.06-2.37.43,0,.85.02,1.28.04,1.95-.15,3.92-.16,5.85-.03.12,0,.25.01.34.02,1.32.08,2.63.26,3.94.46,1.24.19,2.48.44,3.71.74,2.52.62,4.98,1.5,7.36,2.52,1.17.5,2.3,1.07,3.42,1.66,1.07.57,2.14,1.18,3.17,1.83,2.21,1.41,4.33,2.94,6.31,4.67,3.89,3.4,7.28,7.39,9.96,11.8,1.74,2.87,3.24,5.9,4.33,9.05.05.13.09.27.13.38.84,2.4,1.56,4.85,2.06,7.34.52,2.62.85,5.26.96,7.93.08,1.71.03,3.43-.07,5.02,0,.14-.01.27-.02.29-.15,2.56-.57,5.12-1.12,7.62-.56,2.52-1.32,4.99-2.28,7.39-.97,2.45-2.09,4.82-3.41,7.1-1.33,2.3-2.86,4.48-4.54,6.55-.36.45-.74.88-1.05,1.23-.05.06-.1.12-.14.17-3.39,3.88-7.38,7.23-11.79,9.9-1.08.66-2.19,1.31-3.3,1.86-.52.27-1.04.54-1.58.79-.57.26-1.14.52-1.72.78-1.2.55-2.47.99-3.61,1.39-2.44.86-4.95,1.46-7.5,1.91-1.25.22-2.52.4-3.79.51-1.32.12-2.64.17-3.96.2-.3,0-.61,0-.91,0-2.3,0-4.61-.17-6.89-.47Z"/>
  <path class="cls-1" d="M400.05,141.22c-5.03-5.2-7.26-15.25-6.85-22.35.64-8.98,5.18-16.89,8.17-25.2,3.76-8.81,3.06-18.49,3.57-27.8,1.23-14.06,5.5-21.81,15.81-31.23-2.24,3.19-4.81,6.48-7.03,9.78h0c-.55.84-1.05,1.71-1.53,2.59-.02.03-.03.06-.05.09.02-.04.03-.07.05-.11-3.34,6.52-5.07,13.84-5.48,21.11-.26,6.76.12,13.59-1.58,20.2-2.34,10-8.37,18.92-9.76,29.19-.56,4.54-.05,9.08.84,13.55.81,3.5,1.68,7.26,3.87,10.14,0,0,0,0,0,0,.1,0,.02.06-.03.03Z"/>
  <path class="cls-1" d="M411.01,143.18c-8.52-13.47-9.27-22.64-3.95-37.52,1.8-6.35,3.56-13.05,2.52-19.68-.49-3.21-1.51-6.41-2.11-9.58-1.52-7.95-.62-16.51,2.76-23.88,1.62-3.26,3.41-6.65,5.29-9.65-.68,1.72-1.34,3.44-2.01,5.17-5.18,11.62-6.08,23.11-2.34,35.25,1.58,6.71.26,13.63-1.44,20.18-5.5,16.6-5.65,23.42,1.31,39.69h0s0,0,0,0h0,0,0,0,0,0,0,0,0s0,.05-.03.02Z"/>
  <path class="cls-1" d="M384.41,141.64c-11.67-3.7-17.36-16.61-20.13-27.63-2.18-8.62-.51-17.58-1.19-26.31,0,.04,0,.08,0,.11,0,0,0,0,0,0-.41-5.89-2.57-11.39-4.96-16.72-4.59-9.2-1.99-19.66,1.13-28.8-1.15,8.63-3.44,17.69-.09,26.09,2.39,6,5.24,11.92,5.74,18.46.97,8.92-1.06,18,1.11,26.83,2.33,11.14,9.95,23.9,18.38,27.94Z"/>
  <path class="cls-1" d="M395.83,140.88c-13.76-7.52-21.56-15.97-22.73-32.17-.96-7.14-1.11-14.63-3.92-21.34-2.91-7.6-9.13-13.47-11.31-21.36-1.06-4.07-.66-8.58.21-12.56-.11,4.02-.05,8.12,1.24,11.91,3.12,8.03,9.44,14.39,12.23,22.58,2.02,5.5,2.3,11.38,3.06,17.14,1.29,18.37,7.32,24.88,21.28,35.77.03,0,.06-.02.1-.04.11-.04-.1.16-.15.08Z"/>
  <path class="cls-1" d="M368.08,150.15c-11.83-3.48-23.28-12.29-27.12-24.31-1.42-4.53-2.02-9.47-3.94-13.83-2.85-6.53-8.38-10.92-13.14-15.97-9.16-9.6-10.07-23.76-9.04-36.23,1.29,11.4,1.3,24.11,9.02,33.36,4.16,4.98,9.59,8.84,12.98,14.47,3.79,5.52,4.27,12.45,6.31,18.64,0,0,0-.01,0-.02,0-.02,0-.03-.01-.05,3.94,10.78,15.02,19.07,25.03,23.88,0,0,0,0,0,0,0,0,0,0,0,0,0,0,0,0,0,0,0,0,0,0,0,0h0s-.01-.06.02-.03c.06.09-.05.09-.11.08Z"/>
  <path class="cls-1" d="M378.48,143.94c-10.6-1.3-21.09-6.95-26.35-16.48-3.39-5.32-4.77-11.77-8.05-17.1-2.45-4.08-6.51-6.7-10.22-9.53-5.24-4.3-10.9-8.61-14.18-14.68-2.04-4.03-2.9-8.71-3.65-13.06,1.74,4.63,3.07,9.53,6.01,13.58,3.69,4.83,8.36,8.83,13.1,12.61,4.69,3.41,9.6,6.96,11.99,12.45,2.56,5.09,4.03,10.73,7.19,15.49,5.35,8.65,14.92,13.89,24.46,16.68.04,0,.16.04.21.03.02-.02.08,0,.04.03-.16.04-.38.02-.54,0Z"/>
  <path class="cls-1" d="M352.95,158.21c-16.26-1.27-25.18-8.98-33.41-22.37-2.84-3.88-6.77-6.93-11.32-8.49-17.35-4.91-22.37-12.31-27.22-29.06-.12-.37-.32-.76-.34-1.07,1.68,2.98,3.06,6.1,4.47,9.16,4.54,10.71,12.45,16.06,23.38,18.96,5.67,1.81,10.37,5.77,13.66,10.68,3.13,4.81,6.25,9.8,11.02,13.17,6.97,5.06,15.79,8.21,24.2,8.86,0,0,0,0,0,0h0,0,0c-1.44.25-2.97.3-4.45.16,0,0,0,0,0,0Z"/>
  <path class="cls-1" d="M356.85,150.29c-14.72-.61-23.36-6.74-32.38-17.88-3.13-3.32-5.88-7.51-10.22-9.16-3.13-1.02-6.44-1.2-9.6-2.09-6.63-1.81-12.87-5.48-17.13-10.93-1.84-2.67-3.49-5.7-4.87-8.54,1.66,2.29,3.37,4.56,5.08,6.72,3.92,4.46,9.16,7.67,14.63,9.87,4.09,1.62,8.56,1.63,12.7,3.03,3.9,1.36,6.39,4.85,9.12,7.75,7.46,9.18,15.32,17.06,27.49,18.92,4.82,1.02,9.96,1.96,14.74,1.89-3.09.73-6.46.55-9.65.41,0,0,.08,0,.08,0Z"/>
  <path class="cls-1" d="M334.16,172.45c-7.94-.22-16.21-2.49-22.61-7.29-3.08-2.45-5.44-5.62-7.84-8.7.02.02.04.05.06.07-12.21-14.46-24.43-.25-44.34-24.69,6.84,5.47,13.75,11.8,22.69,13.6,3.9.9,7.95,1.19,11.77,2.33,11.83,2.69,12.9,13.62,22.96,18.55,9.76,4.77,21.24,5.56,31.77,3.53,0,0,.06-.08.06-.02,0,0,0,0,0,0-4.48,1.91-9.65,2.41-14.52,2.61Z"/>
  <path class="cls-1" d="M336.99,164.54c-14.75.5-21.85-9.92-33.22-16.59-4.78-2.8-10.38-2.42-15.7-2.85-6-.65-11.71-3.24-16.86-6.28-1.01-.65-2.21-1.28-3.09-1.94,3.72,1.59,7.3,3.16,11.18,4.2,6.64,2.64,13.81,1.58,20.62,3.14,7.48,2.1,13.02,8,19.15,12.41,11.21,8.57,24.41,6.45,36.87,2.34-5.7,3.01-12.46,5.33-19.07,5.59.04,0,.08,0,.13-.01Z"/>
  <path class="cls-1" d="M319.87,196.32c-9.56-.8-16.38-8.33-24.98-11.58-5.7-2.29-11.76-1.46-17.72-1.95-11.53-.4-20.93-7.58-29.07-15.09,3.28,1.98,6.67,4.25,9.95,6.39,5.86,3.85,12.58,6.46,19.63,6.81,5.98.33,12.2-.28,17.88,2.03,9.26,3.52,16.77,12,27.29,11.62,7.45-.2,14.92-2.58,21.12-6.68.08-.07.17-.17.27-.23.01,0,.03.01.01.03h0s-.01,0-.01.02c-6.33,6.06-15.62,9.53-24.37,8.63Z"/>
  <path class="cls-1" d="M324.46,185.73c-15.99-1.56-21.38-12.67-40.17-9.29-11.63,1.59-19.98,1.31-30.13-5.08-.3-.18-.66-.33-.84-.51,3.9,1.33,7.72,3,11.77,3.8,11.3,2.26,22.78-2.54,33.95.14,10.18,2.57,19.56,11.29,30.58,8.31,6.71-1.64,12.14-6.09,18.2-9.07-6.82,5.14-14.14,11.96-23.36,11.7Z"/>
  <path class="cls-1" d="M259.7,216.63c-3.94-.64-7.98-1.74-11.67-3.02,7.25,1,14.88,2.76,22.07.67,10.47-2.77,20.75-10.31,31.87-5.94,4.87,1.69,9.74,4.16,15,4.13,10.44-.45,20.45-5.44,28.18-12.21h0,0s0,0,0,0c-.02,0-.08-.04-.03-.05,0,0,0,0,0,0,.02,0,.04,0,.06.02,0,0,0,.01,0,.02-7.73,9.39-20.78,15.93-33.08,13.63-6.82-1.51-13.2-5.91-20.44-4.69-10.9,1.6-20.55,9.85-31.98,7.44Z"/>
  <path class="cls-1" d="M261.54,215.37c-1.75-.05-3.68-.1-5.3-.4,10.83.25,20.04-5.71,29.48-10.16,4.91-2.14,10.38-3.18,15.71-2.3,5.54.83,11.06,2.63,16.71,1.91,10.64-1.55,18.44-10.02,25.99-16.95.13-.18.39-.34.42-.56.01-.02-.08-.14-.01-.13.02.06.1.12.08.2-1.02,1.81-2.59,3.33-3.86,4.97-6.92,8.37-16.89,16.11-28.36,14.49-6.99-.75-14.05-3.56-21.07-1.43-10.09,2.89-18.8,10.81-29.77,10.35Z"/>
  <path class="cls-1" d="M266.97,249.73c-4.47-.27-9.01-1-13.29-1.89,3.54.05,7.24.2,10.72.31,7.35.36,14.47-1.98,20.66-5.83,5.06-3.24,10.41-6.28,16.59-6.34,5.7-.48,11.52.08,17.14-1.14,11.42-3.02,23.37-12.73,29.98-22.38-4.7,10.8-16.19,19.81-27.65,23.79-8.27,2.57-17.16.42-25.45,2.79-3.46,1.07-6.39,3.21-9.45,4.9-5.82,3.51-12.33,6.32-19.26,5.79Z"/>
  <path class="cls-1" d="M259.99,248.07c7.82-1.21,15.27-4.02,21.75-8.61,5.73-4.08,11.5-8.42,18.4-10.29,6.59-2.05,13.55-2.47,20.2-4.21,11.78-3.33,17.71-15.22,23.86-24.8h0c-3.21,8.21-8.02,17.9-15.79,23.26-5.94,4.16-13.37,4.62-20.28,5.9-5.61,1.02-11.14,2.66-16.08,5.56-10.45,7.4-18.54,13.7-32.04,13.18Z"/>
  <path class="cls-1" d="M275.82,291.28c22.52-5.4,25.27-2.81,37.53-24.43,3.27-5.08,7.81-9.32,13-12.34,4.28-2.55,9.22-3.6,13.55-6.03,8.31-4.99,15.37-13.21,17.3-22.84-.03.05-.06.11-.09.16,0,.02-.03,0-.02-.01.02-.06.04-.2.1-.26.01-.01.03-.01.05,0,.05.03.04.05.06.12.08.27.03.63,0,.9-.83,8.13-5.48,15.66-11.93,20.57-5.27,4.61-12.25,5.93-18.25,9.23-5.83,3.3-10.54,8.33-13.75,14.18-10.56,19.02-17.3,19.15-37.55,20.76Z"/>
  <path class="cls-1" d="M284.95,289.22c3.53-2.39,7.25-4.7,10.35-7.57,4.15-4.21,7.21-9.44,10.01-14.59,2.13-4.04,3.35-8.65,6.31-12.21,2.98-3.62,7.02-6.35,11.05-8.61,4.46-2.48,9.13-4.93,12.68-8.66,6.79-7.14,10.05-16.64,13-25.8,0,0,0,0,0,0-1.24,9.9-4.7,20.48-12.09,27.67-5.36,5.5-12.9,7.9-18.85,12.58-4.64,3.31-7.01,8.42-9.09,13.54-2.95,5.9-6.19,11.92-10.99,16.53-3.6,3.14-8.12,5.29-12.38,7.12Z"/>
  <path class="cls-1" d="M309.3,315.5c15.34-9.89,20.74-11.94,24.85-30.85,1.5-5.5,4.97-10.4,9.77-13.5,5.08-3.34,11.15-5.49,14.97-10.46,4.02-4.98,6.58-11,8.36-17.11.74-3.01,1.83-6.46,1.6-9.34.23.07.19.47.24.65.24,2.31.01,4.64-.3,6.94-1.05,7.46-3.91,14.69-8.75,20.5-4.24,5.33-10.93,7.49-16.24,11.33-4.46,3.25-7.12,8.24-8.3,13.52-3.62,17.23-10.89,21.8-26.2,28.32Z"/>
  <path class="cls-1" d="M314.24,312.34c5.12-3.65,7.58-9.52,10.26-15,2.63-6.26,3.47-12.99,5.39-19.45,1.6-5.52,5-10.35,9.03-14.34,3.87-3.97,8.24-7.24,11.3-11.88,4.95-7.86,6.49-17.34,7.04-26.45h0c1.17,9.26-.21,19.93-5.68,27.97-2.95,4.35-7.18,7.67-10.85,11.33-3.28,3.26-6.23,6.95-7.93,11.28-2.91,7.52-3.26,15.91-6.85,23.15-2.96,5.17-6.11,10.87-11.7,13.39Z"/>
  <path class="cls-1" d="M352.02,332.43c10.14-12.32,10.34-20.78,11.39-35.82.4-4.99,2.85-9.49,6.39-12.97,4.64-4.65,9.58-9.44,11.4-15.96,2.37-8.5,2.78-18.1.46-26.63-.11-.21-.2-.6-.46-.62-.02,0-.02-.02,0-.03.14-.09.32.14.37.21,1.04,1.42,1.5,3.14,1.92,4.82,3.5,16.09.33,28.39-12.09,39.4-3.94,3.76-6.03,8.79-6.26,14.17-.59,14.01-1.89,23.78-13.12,33.43Z"/>
  <path class="cls-1" d="M353.02,329.69c6.09-10.65,5.81-23.04,6.57-34.88.44-4.62,1.57-9.09,3.52-13.31,2.71-5.97,6.4-11.55,8.03-17.96,2.11-9.39,1.18-19.6-2.29-28.52h0,0s-.06-.02-.02-.04c0,0,0,0,0,0,4.85,7.85,6.22,17.94,4.66,26.99-1.18,6.63-4.74,12.46-7.65,18.43-2.73,5.29-4.17,11.19-4.42,17.11-.16,11.19-.9,23.29-8.4,32.18Z"/>
  <path class="cls-1" d="M400.81,335.33c.96-3.76,2.07-7.48,2.67-11.29.92-9.4-3.27-18.17-5.68-27.03-1.61-6.34-1.26-13.35,1.79-19.23,3.64-6.07,5.81-12.93,5.36-20.06-.31-5.63-1.29-11.87-5.05-16.24-.03.02-.06.06-.09.08-.01.01-.03,0-.02-.02.09-.1.14-.15.28-.05.3.19.55.48.8.73,6.05,6.85,7.06,17.01,5.1,25.67-.92,4.76-3.87,8.91-5.66,13.26-1.93,4.89-1.88,10.34-.63,15.38,4.47,15.41,9.33,23.3,1.13,38.81Z"/>
  <path class="cls-1" d="M402.37,329.73c.81-11.26-6.52-20.44-9.87-30.66-1.79-5.13-2.34-10.66-1.63-16.04.53-6.21,3.44-12.16,3.38-18.41-.6-7.94-4.73-15.34-9.2-21.76-.71-1.07-1.75-2.13-2.31-3.15,2.25,2.14,4.49,4.43,6.37,6.96,4.45,6.35,8.28,14.07,6.89,22.02-.68,4.83-2.55,9.35-3.1,14.17-.65,4.6-.34,9.29.96,13.75,3.24,10.91,11.72,21.26,8.53,33.13Z"/>
  <path class="cls-1" d="M449.87,324.48c1.4-13.25-7.29-23.73-14.52-33.8-3.22-4.51-5.4-9.83-5.34-15.43-.02-6.55.98-13.25-.76-19.67-2.16-7.28-6.31-14.26-12.47-18.82,6.21,3.03,11.14,9.44,13.55,15.96,2.18,5.63,2.05,11.84,1.79,17.76-.7,6.81.7,13.59,4.85,19.1,7.44,10.46,16.64,21.18,12.9,34.9Z"/>
  <path class="cls-1" d="M449.96,320.45c-3.47-11.97-13.66-19.95-21.03-29.46-4.16-5.35-6.39-11.87-7.34-18.53-1.04-8.99-3.36-18.17-10.92-23.93-3.06-2.57-7.23-4.07-10.41-6.08,0,0,0,0,0,0h0s0,0,0,0c19.13,5.59,21.24,15.06,23.92,33.05,1.11,5.71,3.69,11.04,7.38,15.54,7.39,8.86,17.29,17.32,18.4,29.41Z"/>
  <path class="cls-1" d="M485.75,303.72c-4.65-9.42-6.23-20.98-15.03-27.76-5.54-4.49-11.52-8.87-14.58-15.53-5.75-14.41-9.77-21.91-24.4-28.99-1.72-.68-3.55-1.95-5.41-1.68.23-.26.82-.25,1.22-.22,10.57,1.84,20.21,8.71,25.2,18.25,2.98,5.45,4.33,11.74,8.28,16.65,3.57,4.64,8.58,7.63,12.75,11.62,7.95,7.01,9.21,18.15,11.99,27.67Z"/>
  <path class="cls-1" d="M483.73,301.89c-1.31-4.61-3.39-8.96-6.9-12.27-3.63-4.03-7.52-7.89-11.99-10.94,0,0,.01.01.02.02,0,0,.01,0,.09.07-6.83-4.34-13.72-8.59-17.7-15.93-2.68-4.46-4.92-9.37-8.3-13.34-5.73-6.44-13.76-10.93-22.08-12.83,0,0,0,0,0,0h0s0,0,0,0h0s0,0,0,0c0,0,0,0,0,0h0s0,0,0,0c7.28.14,15.19,3.73,20.83,8.7,3.86,3.48,6.6,7.96,9.03,12.49,2.64,4.82,5.62,9.5,9.96,12.93,6.93,4.75,14.41,8.96,19.77,15.61,4.14,4.18,6.95,9.62,7.28,15.48Z"/>
  <path class="cls-1" d="M511.64,272.29c-3.81-4.31-6.9-9.29-11.23-13.11-5.6-4.73-12.77-6.77-18.95-10.55-5.36-2.93-9.48-7.56-12.25-12.97-3.26-6.35-8.48-11.61-15.03-14.49-4.94-2.2-10.23-4.07-15.65-4.34h0c-.06,0-.13.02-.15.05-.01.04,0,.1,0,.15,0,.02-.03.02-.03,0,0-.06-.04-.13,0-.19.03-.06.11-.08.18-.1,5.53-.62,11.2.86,16.34,2.83,8.53,3.1,13.88,10.66,18,18.35,2.9,4.83,7.55,8.17,12.5,10.69,15.47,7.15,17.86,8.56,26.29,23.69Z"/>
  <path class="cls-1" d="M507.6,266.73c-6.18-4.9-13.81-8.31-20.89-11.82-5.79-2.58-12.08-4.05-17.6-7.23-5.34-3.07-8.97-8.28-14.1-11.6-5.71-3.54-12.45-4.93-18.97-6-2.83-.37-5.9-.91-8.66-.3,0,0-.03.09-.04.03,0,0,0,0,0,0,0-.02,0-.05.02-.08,3.38-1.25,7.18-.92,10.72-.68,6.04.42,11.92,1.84,17.19,4.86,5.66,3.14,9.31,8.87,14.94,12.07,5.55,3.16,11.89,4.54,17.66,7.2,4.85,2.23,9.41,5,13.7,8.18,2.08,1.66,4.66,3.14,6.02,5.38Z"/>
  <path class="cls-1" d="M528.05,229.22c-4.84-2.63-9.4-5.97-14.72-7.56-4.96-1.43-10.19-1.04-15.24-1.94-7.76-1.2-14.12-6.19-20.16-10.86-10.01-8.58-23.13-8.92-35.32-5.73h0s0,0,0,0c6.21-2.95,13.98-4.18,20.95-3.22,6.94.99,12.83,5.07,18.17,9.35,4.76,3.63,9.88,7.2,15.86,8.36,15.75,1.78,17.63.64,30.46,11.59Z"/>
  <path class="cls-1" d="M521.67,226.12c-3.41-1.17-6.93-2.35-10.45-2.96-9.07-.8-18.3,1.23-27.18-1.29-6.25-1.83-11.91-5.35-18.26-6.88-5.38-1.36-11.05-1.56-16.52-.78-3.96.65-7.53,2.39-11.31,3.59-.29.08-.59.11-.86.17-.02.01-.04-.01-.02-.02,1.02-.35,2.03-.9,2.97-1.43,8.79-5.65,19.98-5.81,29.66-2.4,5.67,1.85,10.85,5.06,16.73,6.27,13.5,2.42,22.27-2.58,35.25,5.73Z"/>
  <path class="cls-1" d="M494.3,190.25c-8.78-.37-16.29-5.8-24.75-7.59-8.27-1.48-17.74-.17-24.53,4.9,4.55-5.49,14.74-8.06,22.41-7.26,5.93.69,11.31,3.41,16.83,5.5,5.64,2.39,11.86,3.08,17.88,1.9,5.63-1.25,11.31-3.14,17.12-1.85,2.63.41,5.4.82,7.87,1.54-1.63-.12-3.26-.21-4.89-.27-3.81-.17-7.53-.5-11.23.47-5.5,1.45-10.98,3.01-16.71,2.68Z"/>
  <path class="cls-1" d="M443.3,204.1c-.06-.04.08-.02.09-.06,4.47-9.29,15.91-13.92,25.87-12.93,8.77.52,17.76,4.37,26.32.81,8.73-3.86,18.29-5.34,27.78-4.42-.74.14-1.61.13-2.39.26-7.03.76-14.06,2-20.68,4.59-4.25,1.68-8.66,3.24-13.3,3.13-15.34-1.44-25.33-6.44-39.42,4.11-1.49,1.15-2.91,2.56-3.91,4.18-.06.1-.19.39-.36.33Z"/>
  <path class="cls-1" d="M440.61,171.43c5.49-7.95,15.99-13.07,25.35-14.67,5.94-1.07,11.91.51,17.83-.16,4.77-.68,8.76-3.42,12.94-5.59,8.83-4.99,15.23-2.9,24.39-.75,3.08.57,6.34.98,9.35,1.46-1.91.11-3.8.07-5.7,0-7.12.13-14.4-3.32-21.41-1.32-5.94,1.63-10.76,5.86-16.65,7.6-6.54,1.93-13.37-.53-20.01.55-9,1.42-19.69,6.32-26.03,12.87h0s0,0,0,0c0,0,0,0,0,0,.23,0-.03.12-.06-.02Z"/>
  <path class="cls-1" d="M445.56,188.51c.03-2.75,1.78-5.5,3.1-7.93,3.11-5.05,7.26-9.62,12.68-12.19,6.4-3.45,13.92-3.17,20.77-5.23,5.36-1.39,9.84-4.66,14.69-7.18,5.29-2.6,10.9-4.56,16.73-5.36,2.92-.38,6.07-.2,8.89.13-3.66.26-7.43.61-10.93,1.71-5.05,1.58-9.78,3.35-14.44,5.7-5.12,2.93-10.15,6.05-15.99,7.36-5.43,1.43-11.26,1.5-16.51,3.56-4.6,1.85-8.62,4.9-11.91,8.56-2.8,3.23-5.8,6.7-7.11,10.8,0,0,0,0,0,0,0,0,0,0,0,0h0s.09.05.03.06c0,0,0,0,0,0Z"/>
  <path class="cls-1" d="M433.61,160.73c4.57-14.53,16.98-26.63,32.03-29.79,7.1-1.63,15.53.39,21.37-4.94,3.03-2.44,5.87-5.12,9.05-7.37,6.18-4.12,13.61-5.74,20.71-7.48-1.83.83-3.93,1.62-5.87,2.43-5.7,2.2-11.51,4.5-16.22,8.5-6.97,6.14-11.06,10.27-21.01,9.98-4.9-.04-9.77.96-14.31,2.75-.79.35-1.62.7-2.41,1.04.04-.01.08-.03.12-.05-10.37,5.22-18.13,14.81-23.43,24.91,0,0,0,0,0,0t0,0h0s-.03.03-.03,0Z"/>
  <path class="cls-1" d="M441.64,172.07h0s0,0,0,0h0s0,0,0,0c.92-10.86,9.36-21.19,17.76-27.68,6.11-4.36,13.79-5.7,20.34-9.14,10.29-4.73,16.73-14.74,26.7-19.98,2.22-1.26,4.45-2.52,6.78-3.58-3.82,2.8-7.93,5.65-11.54,8.81-5.99,5.23-11.39,11.33-18.45,15.18-5.69,3.34-12.15,5.02-18.14,7.67-6.39,2.87-11.08,8.15-15.32,13.55-3.5,4.54-6.91,9.64-8.15,15.15Z"/>
  <path class="cls-1" d="M423.34,149.4c-1.06-9.63,6.14-22.84,12.92-29.48,5.7-6.26,13.74-9.29,20.71-13.76,8.26-5.35,12.11-15.18,19.71-21.21,3.03-2.19,6.41-3.77,9.79-5.32-3.04,2.21-6.56,4.25-9.37,6.89-6.96,7.12-11.36,16.91-20.23,22.04-6.73,4.01-14.27,7.05-19.63,12.97-4.08,4.12-7.14,9.11-9.58,14.34-2.02,4.25-4.12,8.74-4.31,13.48,0,0,.02.04.02.03.01.02,0,.04-.02.02Z"/>
  <path class="cls-1" d="M434.92,160.84c-4.46-10.65.51-22.52,6.48-31.57,4.92-7.65,12.67-12.49,19.65-18.03,7.54-5.78,9.44-15.69,15.19-22.91,2.12-2.72,4.6-5.39,7.05-7.68-2.82,3.9-5.69,7.83-7.9,12.13-9.19,19.48-9.19,16.64-25.16,29.37-9.96,8.93-18.22,25.28-15.3,38.69Z"/>
  <path class="cls-1" d="M414.1,144.74c-2.18-11.53-1.18-25.01,6.78-34.31,5.32-6.68,13.33-11.56,16.55-19.72,2.44-7.43,2.04-16.03,7.8-22.04,2.72-3.3,5.91-6.32,9.23-8.86-2.47,2.88-5.08,5.72-7.3,8.78-2.3,3.03-4.19,6.55-5.03,10.18-1.05,4-1.22,8.19-2.64,12.09-2.25,6.52-7.83,10.98-12.5,15.77-11.87,10.71-12.74,23.05-12.94,38.04.01.01.11.05.05.06Z"/>
  <path class="cls-1" d="M423.69,149.76c-4.86-14.15-3.01-28.5,7.71-39.45,4.08-4.34,8.48-8.58,11.14-13.98,3.97-8.27,3.83-17.72,5.98-26.47,1.11-4.13,2.47-8.83,5.6-11.76-1.8,2.37-2.43,5.44-3.22,8.22-2.04,10.31-2.06,21.27-6.58,30.93-2.78,5.51-7.37,9.96-11.55,14.38-10.63,10.7-11.24,24.05-9.09,38.07,0,.02.05.09,0,.07Z"/>
  <path class="cls-1" d="M243.47,501.28c-4.65-.29-9.3-.7-13.93-1.27-4.71-.58-9.4-1.31-14.08-2.14-4.77-.85-9.5-1.88-14.2-3.04-4.58-1.14-9.14-2.38-13.65-3.77-4.34-1.35-8.66-2.82-12.91-4.42-2.3-.86-4.59-1.76-6.86-2.7-2.13-.87-4.24-1.8-6.35-2.74-4.33-1.92-8.6-3.96-12.81-6.13-4.14-2.14-8.22-4.41-12.24-6.77-4.07-2.4-8.05-4.94-11.95-7.59-3.86-2.61-7.65-5.34-11.34-8.18-1.85-1.43-3.69-2.86-5.5-4.33-1.92-1.57-3.81-3.15-5.68-4.77-3.7-3.19-7.28-6.51-10.75-9.93-6.68-6.6-12.99-13.55-18.89-20.85-3.01-3.73-5.89-7.58-8.66-11.49-2.65-3.74-5.22-7.56-7.64-11.45-2.53-4.08-4.97-8.21-7.26-12.44-2.29-4.24-4.43-8.56-6.5-12.92-2.14-4.5-4.08-9.1-5.92-13.72-.87-2.17-1.68-4.37-2.48-6.57-.84-2.29-1.63-4.61-2.38-6.93-1.43-4.41-2.76-8.86-3.92-13.35-1.25-4.84-2.36-9.72-3.36-14.62-.97-4.79-1.76-9.63-2.4-14.48-.64-4.87-1.13-9.75-1.49-14.66-.22-3.07-.36-6.15-.46-9.19-.31-9.62-.03-19.27.79-28.87.4-4.69.96-9.37,1.71-14.01.75-4.67,1.56-9.34,2.53-13.97.99-4.73,2.11-9.42,3.39-14.08,1.23-4.48,2.61-8.92,4.09-13.32,2.99-8.87,6.53-17.56,10.56-26.01,1.39-2.92,2.83-5.81,4.32-8.62.13-.25.27-.51.35-.66,2.19-4.15,4.57-8.19,7.01-12.21,2.55-4.21,5.28-8.32,8.1-12.35,5.37-7.69,11.18-15.06,17.42-22.05,6.28-7.04,12.94-13.73,20-19.98,7.23-6.4,14.86-12.34,22.8-17.82,15.64-10.82,32.61-19.75,50.38-26.5,8.68-3.3,17.56-6.06,26.57-8.35,4.68-1.19,9.39-2.2,14.12-3.12,4.64-.89,9.31-1.6,14-2.22,4.73-.63,9.48-1.08,14.23-1.41,4.57-.32,9.14-.52,13.72-.57,4.45-.05,8.89.03,13.33.22,4.55.19,9.09.56,13.61,1.02,4.49.46,8.97,1.01,13.43,1.71,3.83.6,7.65,1.33,11.44,2.14,1.81.38,3.61.78,5.4,1.22,1.87.47,3.73.99,5.58,1.55,3.77,1.12,7.5,2.4,11.16,3.85,1.2.48,2.38.99,3.57,1.49.01,0,0,.03,0,.03-.02,0-.06-.01-.06-.01,0,0,0,0,0,0-.06-.01-.12-.03-.19-.04h0c-.12-.03-.24-.06-.36-.09-.4-.09-.8-.19-1.2-.28-1.97-.46-3.95-.93-5.84-1.38-.44-.1-.88-.21-1.3-.31-.48-.11-.95-.22-1.32-.31-.27-.07-.54-.13-.72-.17-.24-.06-.49-.11-.72-.16-3.22-.75-6.44-1.46-9.67-2.18-3.11-.7-6.23-1.38-9.36-1.99-7.28-1.4-14.63-2.49-21.88-3.22-5.1-.49-10.23-.81-15.36-.98-5.28-.18-10.56-.14-15.71,0-4.94.17-9.87.48-14.79.96-5.21.5-10.38,1.19-15.54,2.03,0,0,0,0,0,0-5.35.91-10.67,1.95-15.95,3.21-5,1.19-9.96,2.54-14.76,4.02-2.7.85-5.4,1.72-8.07,2.65-2.53.87-5.03,1.81-7.53,2.77-5.22,2-10.35,4.21-15.41,6.57-4.59,2.16-9.12,4.44-13.57,6.89-4.37,2.4-8.67,4.94-12.8,7.55-.19.12-.37.24-.47.3-.27.17-.55.35-.72.46-8.38,5.36-16.37,11.3-24.01,17.66-4.02,3.39-7.92,6.91-11.74,10.53-3.76,3.57-7.35,7.3-10.8,11.01-3.34,3.65-6.57,7.39-9.67,11.25-3.08,3.85-6.05,7.76-8.85,11.68-2.89,4.12-5.69,8.32-8.32,12.62-1.34,2.18-2.65,4.39-3.92,6.62-1.23,2.14-2.4,4.32-3.5,6.39-2.42,4.59-4.75,9.24-6.88,13.97-1.03,2.28-2.03,4.58-2.99,6.9-1,2.42-1.95,4.87-2.87,7.32-.86,2.32-1.71,4.64-2.51,6.98-.82,2.38-1.58,4.77-2.33,7.18-1.52,4.93-2.82,9.94-4,14.84-1.21,5.23-2.33,10.48-3.18,15.79-.41,2.55-.75,5.11-1.07,7.68-.34,2.7-.64,5.4-.9,7.98-.46,4.88-.79,9.76-.98,14.67-.21,5.12-.19,10.25-.04,15.34.2,5.48.55,10.94,1.09,16.4.55,5.52,1.34,11.01,2.22,16.36.92,5.26,1.94,10.5,3.22,15.69,1.2,4.88,2.55,9.71,3.98,14.4,1.56,5,3.25,9.97,5.15,14.85,1,2.56,2.02,5.11,3.09,7.64,1.09,2.58,2.25,5.14,3.37,7.58,1.08,2.29,2.19,4.57,3.34,6.84,1.19,2.34,2.43,4.65,3.7,6.95,2.42,4.41,5.02,8.73,7.69,12.98,1.5,2.34,3.03,4.67,4.59,6.97,1.41,2.08,2.89,4.12,4.37,6.14,2.92,3.98,6,7.85,9.07,11.57.36.43.73.86,1.02,1.21,3.11,3.69,6.34,7.29,9.68,10.78,3.62,3.77,7.39,7.39,11.15,10.86,3.7,3.37,7.47,6.63,11.37,9.77,3.97,3.2,8.05,6.27,12.2,9.22,8.12,5.67,16.55,10.86,25.27,15.52,4.6,2.43,9.26,4.76,14.02,6.88,4.72,2.11,9.53,4.03,14.26,5.81,4.55,1.68,9.14,3.25,13.78,4.66,4.73,1.43,9.48,2.74,14.22,3.87,5.08,1.18,10.2,2.24,15.34,3.11,5.25.89,10.53,1.57,15.7,2.11,5.23.51,10.47.86,15.73,1.05,5.19.19,10.38.16,15.54.02,2.73-.1,5.45-.23,8.18-.41,2.58-.17,5.16-.41,7.73-.67,5.43-.54,10.83-1.31,16.09-2.17,2.66-.45,5.31-.94,7.95-1.47,2.52-.51,5.04-1.09,7.55-1.69,4.95-1.18,9.83-2.57,14.69-4.06,0,0,0,0,0,0,0,0,0,0,.01,0,.02,0,.05-.01.05-.02,2.57-.8,5.13-1.64,7.68-2.52,2.6-.9,5.18-1.87,7.76-2.86,5.1-1.96,10.11-4.11,14.94-6.37,2.39-1.12,4.76-2.27,7.11-3.46,2.29-1.16,4.54-2.37,6.79-3.61,4.57-2.51,9.04-5.18,13.33-7.92,4.15-2.67,8.23-5.45,12.21-8.36,4.2-3.07,8.3-6.26,12.19-9.5,3.97-3.35,7.85-6.79,11.61-10.37,3.87-3.69,7.62-7.52,11.23-11.42,1.6-1.76,3.2-3.52,4.75-5.32,1.63-1.91,3.25-3.84,4.83-5.79,3.06-3.76,5.97-7.64,8.81-11.57,0,0,0,0,0,0,0,0,0,0,0,0,.02-.03.04-.06.05-.06,2.94-4.17,5.77-8.42,8.43-12.78,2.58-4.21,4.98-8.54,7.26-12.84,1.19-2.26,2.37-4.54,3.49-6.84,1.16-2.38,2.26-4.79,3.32-7.22,1.01-2.31,2.02-4.61,2.98-6.94,1.02-2.44,1.98-4.9,2.91-7.36.39-1.03.77-2.07,1.14-3.04.15-.4.3-.79.4-1.08.15-.39.3-.79.41-1.08.15-.39.3-.79.43-1.15.14-.37.27-.73.4-1.07.13-.36.27-.72.39-1.04.56-1.52,1.12-3.03,1.65-4.55.39-1.12.78-2.24,1.19-3.35.71-1.95,1.41-3.9,2.12-5.85,0-.02.03-.01.03,0-.45,2.59-.96,5.17-1.59,7.73-.4,1.65-.87,3.28-1.33,4.91-.66,2.35-1.37,4.68-2.15,6.99-.71,2.12-1.51,4.21-2.32,6.3-.82,2.11-1.67,4.2-2.54,6.29-.83,1.96-1.69,3.92-2.6,5.85-.97,2.05-1.96,4.09-2.97,6.12-1.97,3.99-4.04,7.91-6.23,11.78-1.13,2-2.32,3.98-3.51,5.95-1.26,2.06-2.53,4.1-3.84,6.13-5.22,8.06-10.85,15.85-16.96,23.27-6.11,7.42-12.66,14.47-19.62,21.09-3.5,3.34-7.11,6.55-10.81,9.66-3.63,3.05-7.34,6.01-11.15,8.83-3.74,2.77-7.57,5.43-11.46,7.98-3.71,2.43-7.5,4.73-11.33,6.97-3.9,2.28-7.89,4.41-11.92,6.44-4.09,2.06-8.23,4.02-12.43,5.83-4.22,1.82-8.48,3.55-12.79,5.13-4.31,1.57-8.66,3.03-13.05,4.35-8.84,2.65-17.83,4.75-26.9,6.42-4.79.88-9.6,1.57-14.43,2.15-4.69.55-9.39.93-14.1,1.2-4.55.26-9.12.39-13.68.39-4.91,0-9.81-.15-14.71-.45Z"/>
  <path class="cls-1" d="M179.15,204.9c.15-3.13.08-6.31-.61-9.38-2.1-5.18-5.97-9.48-8.41-14.52-5.9-12.54-6.07-27.22-3.05-40.55,4.4-18.18,14.06-34.72,25.56-49.3,15.42-18.43,35.94-32.03,58.11-41,26.39-11.24,54.98-19.94,82.46-11.7-26.18-2.75-43.3-1.42-68.03,7.97-12.97,4.97-25.99,10.29-37.9,17.46-12,7.64-23.27,16.81-32.48,27.65-10.44,12.86-19.02,27.47-24.16,43.24,0-.03.02-.06.03-.1,0,0,0-.01,0-.02-4.36,13.99-5.12,29.66.46,43.41,4.59,10.18,11.54,14.57,8.02,26.83Z"/>
  <path class="cls-1" d="M207.22,314.91c-1.09-.21-2.35-.58-3.28-1,.31.06.61.11.91.16,1.02.1,2.06.42,3.03.14,1.29-.52,2.29-1.54,3.31-2.45,2.05-1.85,3.57-4.19,5.7-5.95,2.69-2.68,6.24-4.35,9.75-5.6,1.63-.68,3.48-.96,4.93-2.01,1.11-1.24,1.87-2.7,2.33-4.26.45-2.19,1.63-5.47-.44-7.07-1.21-.45-2.54-.13-3.79-.3-2.53-.01-4.77-1.95-6.39-3.67-4.58-4.88-1.55-9.76,1.55-14.34,1.82-2.99,3.74-6.21,5.64-9.08,1.33-1.92,1.95-4.14,1.93-6.43.28-3.24-1.05-4.57-3.91-5.65-5.64-2.49-11.85-3.72-17.44-6.3-6.78-3-13.19-6.82-19.4-10.84-12.72-8.5-14.76-14.1-12.31-28.89,0,0,0,.01,0,.01.39,7.53-.31,15.2,5.73,20.8,6.35,6.43,14.44,10.66,22.33,14.91,6.69,3.57,14.12,5.17,21.15,7.9,6.23,2.04,6.76,5.81,5.68,11.7-.73,2.73-2.69,5.05-4.09,7.4-1.54,2.53-3.08,5.1-4.62,7.58-1.48,2.23-3,4.75-1.98,7.48.9,2.39,3.27,4.46,5.71,5.13,1.99.37,4.44-.48,5.99,1.14,3.22,2.95,1.04,10.08-1.12,13.18-.89,1.56-2.54,2.3-4.19,2.8-3.17,1.1-6.44,2.17-9.25,4.05-3.64,2.38-6.39,5.83-10.01,8.21-1.02.67-2.19,1.38-3.44,1.26Z"/>
  <path class="cls-1" d="M205.66,281.34c-10.22-.75-10.49-10.8-6.72-18.2-.29,1.62-.82,3.49-1.03,5.22-.25,3.45.25,7.87,3.6,9.64,2.22.84,5.5,2.23,7.22-.14,4.48-4.44,4.16-11.54,8.47-16.04,1-1.12,4.71-3.71,5.17-1.06-.21,1.29-.61,2.56-.99,3.8.1-.09-.05.22-.08.08.18-1.28.37-2.58.38-3.87-.01-.12-.06-.26-.2-.28-2.71.5-4.28,3.45-5.2,5.82-1.37,3.84-1.83,8.01-4.53,11.22-1.42,2.08-3.31,4.18-6.09,3.81Z"/>
  <path class="cls-1" d="M221.18,319.73c4.46-1.27,9.75-1.85,12.98-5.49,1.47-2.03,2.71-4.53,3.2-6.98.12-2.57-1.31-5-3.71-5.91-1.6-.74-3.43-1.11-5.06-1.54,2.23.05,4.6.15,6.69,1.06,7.18,3.3,3.36,13.71-2.21,16.65-3.68,1.78-7.96,2.1-11.9,2.2Z"/>
  <path class="cls-1" d="M186.62,385.98c-23.49-.42-45.43-4.89-65.53-17.37,8.88,3.31,17.5,7.33,26.57,10.1,10.35,3.09,21.11,4.49,31.86,5.13,12.36.78,25.23.31,36.68-4.84,7.18-3.24,14.98-5.89,20.74-11.47,4.74-4.81,8.84-10.73,9.93-17.51.87-4.42.43-9.43-3.42-12.27-3.48-2.67-7.55-4.64-10.45-7.99-4.31-4.81-3.56-10.46.84-14.86.5-.46.94-1.57,1.65-1.12.02.05-.07,0-.09,0-.08-.05-.2-.05-.27-.02-1.55,2.04-3.03,4.57-3.57,7.1-.14,2.06.41,4.14,1.57,5.82,5.34,7.5,17.69,8.86,16.22,20.38-.42,9.63-6.17,18.18-13.46,24.13-4.95,3.84-10.86,6.07-16.53,8.59-10.17,4.93-21.53,6.45-32.72,6.2Z"/>
  <path class="cls-1" d="M332.15,426.97c-37.92-.66-83.4-19.28-99.33-55.58.02-.29.08.08-.01.24,0,0,0,0,0,0,3.67,4.56,6.85,9.63,10.69,14.11,5.02,6.02,10.77,11.29,16.95,16.07,17.97,12.93,39.7,20.43,61.63,22.71,20.54,2.34,41.01-2.55,60.13-9.77,30.34-10.53,57.01-29.91,78.78-53.29,6.23-6.73,11.62-13.95,16.77-21.48,2.66-3.84,5.78-7.54,8.02-11.54-3.85,9.77-9.94,18.53-16.52,26.62-13.89,16.83-30.75,31.13-48.92,43.16-11.49,7.41-23.79,13.46-36.68,18.03-16.48,6.13-33.78,11.01-51.51,10.73Z"/>
  <path class="cls-1" d="M166.49,198.52c-3.55-2.49-7.69-4.1-11.64-5.82,4.18.43,9.05,2.43,11.64,5.82Z"/>
  <path class="cls-1" d="M164.37,200.27c-5.71-3.32-12.3-5.14-18.01-8.26,6.38,1.54,13.32,3.57,18.02,8.26,0,0,0,0-.01,0Z"/>
  <path class="cls-1" d="M159.81,199.81c-4.53-1.87-9.59-2.9-14.13-4.62,4.87.39,10.34,1.53,14.13,4.62Z"/>
  <path class="cls-1" d="M156.47,201.02c-5.22-.88-10.63-2.24-15.5-4.12,5.71.36,11.17,2.28,16.5,4.04.03,0,.12-.03.09.01-.34.15-.73.1-1.09.07Z"/>
  <path class="cls-1" d="M152.39,201.95c-5.39-.32-10.88-1.37-15.99-2.86,6.12-.14,11.95,1.62,17.89,2.64-.5.21-1.3.2-1.9.22Z"/>
  <path class="cls-1" d="M145.71,203.47c-4.03-.13-7.99-.9-11.92-1.78,1.94-.18,4.12.01,6.13.16,3.19.26,6.22,1.1,9.38,1.23-1.05.34-2.42.39-3.59.38Z"/>
  <path class="cls-1" d="M126.81,205.67c5.46-1.18,11.59-2.09,17.15-1.73-5.63,1.19-11.36,2.07-17.15,1.73Z"/>
  <path class="cls-1" d="M121.19,211.1c6.41-2.64,13.24-4.58,20.12-5.38-6.36,2.42-13.35,4.52-20.12,5.38Z"/>
  <path class="cls-1" d="M116.99,216.65c3.45-2.17,7.3-3.75,11.17-5.02,1.93-.46,4.33-1.41,6.18-.67-2.26-.05-4.4,1.21-6.51,1.93-3.51,1.44-7.29,2.67-10.84,3.76Z"/>
  <path class="cls-1" d="M110.02,224.19c3.95-3.48,8.62-5.99,13.32-8.28,2.19-.91,4.63-2.24,6.95-2.3-6.81,3.21-13.44,7.48-20.27,10.58Z"/>
  <path class="cls-1" d="M106.53,231.49c4.05-4.2,8.57-7.94,13.41-11.15,1.86-1.08,3.83-2.71,5.91-3.05-6.5,4.49-12.47,10.23-19.32,14.2Z"/>
  <path class="cls-1" d="M103.85,237.4c4.27-5.15,9.87-10.13,16.23-12.21-5.67,3.65-10.81,8.33-16.23,12.21Z"/>
  <path class="cls-1" d="M101.75,246.49c3.45-4.97,7.69-9.35,12.2-13.31-3.3,4.94-7.65,9.55-12.2,13.31Z"/>
  <path class="cls-1" d="M102.26,250.34c1.13-2.1,2.6-4.32,4.5-5.68-1.35,1.97-2.81,4.08-4.5,5.68Z"/>
  <path class="cls-1" d="M162.37,237.47c-2-5.52-6.43-9.58-9.72-14.26,4.48,3.46,9.31,8.21,9.72,14.26Z"/>
  <path class="cls-1" d="M126.72,254.9c10.67-2.81,21.45-6.52,30.76-12.55,2.62-1.81,5.4-3.83,6.66-6.85.07-.3.4-.88.49-.19-.03.06-.04-.02-.05-.04-.02-.04-.07-.16-.12-.19-4.09,12.75-25.69,19-37.75,19.82Z"/>
  <path class="cls-1" d="M164.22,239.27c-.67-.08-1.31-.25-1.92-.53-.06-.04-.02-.12.04-.11,3.68.36,7.35-.69,11.04-.75-2.81,1.07-6.09,1.69-9.16,1.39Z"/>
  <path class="cls-1" d="M163.33,241.9c-1.34-.04-2.86.04-4.05-.6-.02-.05.14-.05.09,0,4.73.14,9.45-1.25,14.2-1.46-3.17,1.22-6.81,2.06-10.29,2.07h.05Z"/>
  <path class="cls-1" d="M166.75,245.31c-3.07,0-6.39-.56-8.98-2.27-.04-.11.27-.1.07-.03,0,0,0,0,.01.01,0,0,0,0,0,0,4.72,1.39,9.78,1.2,14.65,1.89-1.79.34-3.9.39-5.81.4h.07Z"/>
  <path class="cls-1" d="M162.87,247.18c-2.49-.26-5.7-.45-7.33-2.53.04-.11.51.19.2.1,2.17,1.27,4.77,1.16,7.17,1.51,1.95.27,3.91.63,5.87.94-1.85.21-3.97.09-5.9-.02Z"/>
  <path class="cls-1" d="M163.12,250.73c-4.02-.56-8.7-.89-11.72-3.91,0,.01,0,.02,0,.03,0,.02-.03.02-.03,0h0c-.11-.16,0-.15.1-.09,3.56,2.03,7.98,2.36,11.66,3.97Z"/>
  <path class="cls-1" d="M158.71,254.45c-3.39-1.42-7.23-2.88-9.5-5.88,0-.11.16.02.2,0,.05.03-.03.05-.07.04,2.98,2.11,6.57,3.59,9.38,5.84Z"/>
  <path class="cls-1" d="M153.64,255.09c-2.72-1.18-6.92-2.93-8.15-5.16,2.61,1.84,5.73,3.16,8.15,5.16Z"/>
  <path class="cls-1" d="M147.55,256.35c-1.9-1.27-3.91-2.64-5.14-4.61-.16-.31-.4-.73-.29-1.08.07-.11.38.13.3.16-.06-.04-.12-.05-.19-.08,0,0,0,0,0,0,0,0,0,0,0,0,1.29,2.2,3.89,3.58,5.33,5.6Z"/>
  <path class="cls-1" d="M145.13,257.67c-1.8-1.72-3.93-3.5-4.77-5.9.02-.11.13-.1.21-.08,0,0,0,0,0,0,.24.02.03.07-.08.07,0,0,0,0,0,0h0s0,0,0,0c0,0,0,0,0,0,1.45,1.98,3.47,3.77,4.66,5.9Z"/>
  <path class="cls-1" d="M140.72,259.64c-1.38-1.92-2.73-3.96-3.42-6.24-.04-.14-.14-.54.13-.49.09,0,.18,0,.26,0,.02,0,.02.02,0,.03-.1.03-.2.06-.29.1,1.08,2.14,2.6,4.35,3.31,6.61Z"/>
  <path class="cls-1" d="M136.98,260.91c-1.2-2.39-2.4-4.91-2.74-7.58-.02-.14.3-.2.09-.06.98,2.44,2.23,5.06,2.65,7.65Z"/>
  <path class="cls-1" d="M131.7,254.88c0-.15-.06-.66.25-.57.07.03-.08.04-.1.06-.09.13-.05.45-.15.51Z"/>
  <path class="cls-1" d="M131.18,244.3c1.14-8.04,4.46-16.24,11.3-21.04,2.18-1.36,4.54-3.16,7.19-3.08-9.76,3.74-14.92,14.89-18.49,24.12Z"/>
  <path class="cls-1" d="M208.23,314.49c5.12-6.6,8.92-14.17,13.46-21.2,1.38-2.21,3.11-4.28,5.42-5.55,2.28-.86,4.91-.7,7.24-1.32,0,0,0,0,0,0-1.89.94-4.29,1.36-6.33,2.2-2.81,1.73-4.19,4.82-5.75,7.59-3.86,6.61-8.31,13.32-14.05,18.28Z"/>
  <path class="cls-1" d="M157.67,226.85c-2.11-5.73-4.93-12.2-3.9-18.27.14,6.21,2.93,12.24,3.9,18.27Z"/>
  <path class="cls-1" d="M161.8,230.03c-1.81-4.87-3.28-9.75-4.32-14.8-.41-2.47-1.01-5.6-.49-7.83,0,0,0,0,0,0,0,.02,0,.03-.02.05h0c.59,7.65,3.57,15.11,4.82,22.59Z"/>
  <path class="cls-1" d="M165.37,229.5c-2.34-6.71-4.39-13.58-5.23-20.65-.09-1.03-.18-2.08,0-3.11.04-.12.05-.22.18-.19.05.03-.06.03-.06.03,0,.01-.02.03-.02.04,0,0,0,0,0,0,.66,8.04,3.89,15.97,5.12,23.89Z"/>
  <path class="cls-1" d="M166.39,223.49c-1.44-5.61-3.6-11.86-3-17.53h0s0,0,0,0c.58,5.79,2.51,11.73,3,17.53Z"/>
  <path class="cls-1" d="M168.52,222.95c-1.55-5.26-2.83-10.72-2.88-16.22.03-.25,0-.6.17-.8.04,0,.02.03,0,.04.54,5.6,2.28,11.39,2.7,16.98Z"/>
  <path class="cls-1" d="M171.24,219.81c-1.18-4-2.04-8.17-2.13-12.36.05-.45-.07-1.42.32-1.6-.02.02-.03.03-.05.05,0,0,0,0,0,0,0,0,0,0,0,0,0,0,0,0,0,0,0,0,0,0,0,0,.17,4.61,1.69,9.33,1.85,13.91Z"/>
  <path class="cls-1" d="M173.75,215.34c-.93-3.61-2.04-7.67-1.64-11.29.47,3.7,1.51,7.58,1.64,11.29Z"/>
  <path class="cls-1" d="M174.51,205.86c-.12-1.65-.65-3.8.04-5.25-.2,1.65.24,3.62-.04,5.25Z"/>
  <path class="cls-1" d="M201.29,279.29c-1-2.97-2.17-6.98-1.94-9.71.67,3.21,1.66,6.51,1.94,9.71Z"/>
  <path class="cls-1" d="M203.95,280.12c-1.25-3.4-2.64-7.91-2.18-11.14h0c.48,3.69,1.75,7.48,2.18,11.14Z"/>
  <path class="cls-1" d="M206.42,280.43c-1.18-3.38-2.74-7.63-2.25-10.97h0c.42,3.66,1.86,7.35,2.25,10.97Z"/>
  <path class="cls-1" d="M208.57,277.76c-1.02-2.87-2.49-6.82-2.21-9.53.61,3.13,1.88,6.38,2.21,9.53Z"/>
  <path class="cls-1" d="M210.81,275.94c-1.22-3.15-2.83-7.74-2.44-10.57h0c.59,3.51,1.99,7.07,2.43,10.57Z"/>
  <path class="cls-1" d="M212.95,271.51c-.88-2.84-2.42-7.06-1.78-9.65.23,3.15,1.62,6.48,1.78,9.65Z"/>
  <path class="cls-1" d="M215.22,266.27c-.59-2.52-1.07-5.08-.8-7.66.01-.04.04-.24.13-.26.04,0,0,.04,0,.03.04,2.58.8,5.35.67,7.89Z"/>
  <path class="cls-1" d="M218.83,260.76c-.25-2.03-.78-4.77-.04-6.49-.17,2.12.35,4.43.04,6.49Z"/>
  <path class="cls-1" d="M221.3,259.76c-.01-1.74-.18-4.43.62-5.85-.33,1.8-.1,4.07-.62,5.85Z"/>
  <path class="cls-1" d="M224.15,260.44c.52-2.52.74-5.67,2.32-7.65-.98,2.37-1.24,5.32-2.32,7.65Z"/>
  <path class="cls-1" d="M217.56,278.93c-.95-1.15-2.7-3.12-2.73-4.33h0s0,0,0,0c.76,1.44,2.1,2.86,2.74,4.32Z"/>
  <path class="cls-1" d="M218.46,277.73c-1.27-1.9-2.53-3.91-3.09-6.15,0-.05-.02-.18.03-.21.1-.05.15,0,.03.03h0s0,0,0,0c.86,2.1,2.37,4.2,3.03,6.33Z"/>
  <path class="cls-1" d="M219.76,275.14c-1.04-1.95-2.47-4.16-2.44-6.38.53,2.04,1.94,4.28,2.44,6.38Z"/>
  <path class="cls-1" d="M219.97,265.9c-.03-.08-.12-.34.04-.29.04.01,0,.04-.03.03-.03.05.07.29,0,.26Z"/>
  <path class="cls-1" d="M199.72,313.82c-.4-1.08-1.15-2.44-.93-3.52.04,0,.02.04-.01.03.25,1.13.86,2.38.95,3.49Z"/>
  <path class="cls-1" d="M201.69,312.77c-.36-1.16-.87-2.73-.68-3.79.22,1.21.68,2.6.68,3.79Z"/>
  <path class="cls-1" d="M203.46,312.06c-.44-1.26-1.04-2.88-.89-4.12.31,1.31.82,2.83.89,4.12Z"/>
  <path class="cls-1" d="M205.86,313.79c-.59-2.53-1.49-5.97-.84-8.22,0,0,0,0,0,0,0,0,0,0-.01,0,.11,2.7.9,5.55.85,8.22Z"/>
  <path class="cls-1" d="M207.74,313.79c-.72-2.79-1.29-5.73-1.04-8.62.05-.3.36.08.1-.07,0,0,0,0,0,0,.23,2.86.96,5.87.94,8.69Z"/>
  <path class="cls-1" d="M209.57,311.18c-.55-2-1.29-4.66-1-6.48h0,0,0s0,0,0,0c0,.04,0,.08,0,.12h0c.42,2.08.96,4.3,1,6.36Z"/>
  <path class="cls-1" d="M211.04,309.36c-.23-2.15-.55-5.07.25-6.87,0,0,0,0,0,0-.01.03-.02.05-.04.07h0c-.12,2.21.1,4.64-.21,6.8Z"/>
  <path class="cls-1" d="M213.25,307.57c-.28-1.04-.74-2.24-.58-3.29.05,0,.1.12.02.06.2,1.02.59,2.24.56,3.23Z"/>
  <path class="cls-1" d="M228.64,326.91c-.06-2.73.06-5.54.92-8.15.15-.32.37-.99.72-.99-.22.13-.29.42-.37.67-.56,2.76-.63,5.78-1.27,8.47Z"/>
  <path class="cls-1" d="M227.16,325.97c0-2.43-.27-5.23.98-7.38.12-.13.27-.01.39-.02.06.07-.19.04-.25.04-.84,2-.51,5.21-1.13,7.36Z"/>
  <path class="cls-1" d="M225.31,324.21c.08-2.2.19-4.58,1.2-6.56.02-.07.27-.18.24-.09-.03,0-.06.03-.08.02,0,0-.02.01-.02.01-.68,2.1-.66,4.57-1.33,6.61Z"/>
  <path class="cls-1" d="M223.08,323.18c.37-1.42,1.04-4.05,1.96-4.59-.78,1.41-1.12,3.27-1.96,4.59Z"/>
  <path class="cls-1" d="M221.03,325.33c.35-1.74.81-5.17,1.91-5.88-.86,1.79-1.03,4.12-1.91,5.88Z"/>
  <path class="cls-1" d="M221.33,301.16c-.32-1.21-.46-2.47-.54-3.7.42.72.57,2.67.54,3.7Z"/>
  <path class="cls-1" d="M223.63,301.4c-.25-2.25-.47-4.96.1-7h0,0c.02,2.27.24,4.8-.1,7Z"/>
  <path class="cls-1" d="M226.23,301.09c-.24-2.7-.73-6.14.17-8.53,0,0-.02,0-.03,0h0c-.14,2.77.26,5.81-.14,8.52Z"/>
  <path class="cls-1" d="M228.85,300c-.33-2.41-.41-6.9.23-8.31,0,0,0,0,0,0,.04,2.74.1,5.67-.23,8.32Z"/>
  <path class="cls-1" d="M230.63,299.06c-.4-3-.36-6.2.42-9.12h0s0,0,0,0c0,0,0,0,0,0-.05,2.81-.1,6.23-.42,9.11Z"/>
  <path class="cls-1" d="M233.8,298c-.21-2.54-.51-5.74.12-7.96t0,0h0s0,0,0,0c.05,2.6.26,5.42-.12,7.95Z"/>
  <path class="cls-1" d="M158.21,274.8c-.52-.84-1.44-2.22-1.47-2.96.53.92,1.22,1.99,1.47,2.96Z"/>
  <path class="cls-1" d="M161.83,273.97c-.92-2.1-2.18-4.94-2.15-6.94.73,2.26,1.77,4.64,2.15,6.94Z"/>
  <path class="cls-1" d="M163.68,270.31c-1.12-2.49-2.23-5.05-2.41-7.78,0-.04,0-.26.11-.27.02,0,.02.02,0,.03,0,0-.01,0-.02,0h0s0,0,0,0c0,.03,0,.05-.02.07,0,0,0,0,0,0,.6,2.63,1.92,5.3,2.33,7.94Z"/>
  <path class="cls-1" d="M165.59,268.07c-1.24-2.48-2.37-5.08-2.74-7.84,0-.09-.04-.37.13-.32.03,0,0,.04-.01.03h0s-.03,0-.04,0c.69,2.68,2.13,5.43,2.65,8.13Z"/>
  <path class="cls-1" d="M169,268.06c-2.08-3.42-4.62-8.02-5.42-11.39,1.96,3.66,4.06,7.53,5.42,11.39Z"/>
  <path class="cls-1" d="M169.86,263.33c-2.12-3.06-4.07-6.37-5.35-9.85.04-.05.17.08.05.04,1.99,3.09,3.96,6.46,5.3,9.81Z"/>
  <path class="cls-1" d="M169.6,257.5c-1.49-2.22-3.59-5.31-3.89-7.65,1.18,2.51,2.97,5.05,3.89,7.65Z"/>
  <path class="cls-1" d="M171.37,254.27c-1.15-1.7-2.69-4.01-3.15-5.7,1.22,1.77,2.41,3.76,3.15,5.7Z"/>
  <path class="cls-1" d="M108.17,274.73c3.94-5.21,7.76-11.16,13.64-14.31-5.09,4.03-8.87,9.92-13.64,14.31Z"/>
  <path class="cls-1" d="M98.94,295.3c1.96-6.08,3.86-12.57,7.59-17.77,0,0,0,.02,0,.02,0,.02-.02.02-.03,0,0,0,0,0,0,0-2.7,5.77-4.64,12.12-7.57,17.74Z"/>
  <path class="cls-1" d="M105.15,299.57c2.18-9.46,4.31-20.15,11.88-26.75-6.59,7.5-8.47,17.74-11.88,26.75Z"/>
  <path class="cls-1" d="M114.21,294.03c1.32-7.13,2.88-14.84,7.11-20.74-3.21,6.52-4.66,14-7.11,20.74Z"/>
  <path class="cls-1" d="M121.92,284.96c.79-3.76,1.57-8.15,3.57-11.28-1.23,3.65-2.03,7.76-3.57,11.28Z"/>
  <path class="cls-1" d="M128.07,239.6c3.47-9.46,6.42-20.38,15-26.52.17-.1.49-.32.63-.24-.21.07-.39.21-.57.35-7.7,6.94-10.5,17.54-15.06,26.42Z"/>
  <path class="cls-1" d="M126.56,231.77c1.71-3.89,3.62-7.71,5.75-11.39,1.74-2.83,3.83-6.14,6.84-7.57-3.07,2.34-4.9,6-6.81,9.28-1.86,3.25-3.79,6.6-5.78,9.68Z"/>
  <path class="cls-1" d="M125.52,225.16c1.84-3.54,3.63-7.56,6.45-10.32-2.1,3.41-4.06,7.16-6.45,10.32Z"/>
  <path class="cls-1" d="M98.33,280.12c5.35-7.47,10.56-16.67,19.24-20.43-8.04,4.94-12.91,13.76-19.24,20.43Z"/>
  <path class="cls-1" d="M95.62,271.03c5.41-4.35,11.15-8.24,17.04-11.92,3.91-2.43,8.04-4.97,12.42-6.19-10.31,5.13-19.53,12.46-29.46,18.11Z"/>
  <path class="cls-1" d="M95.02,263.59c3.77-1.84,7.55-3.68,11.37-5.28.03-.01.06-.03.07-.02,3.08-1.25,6.14-2.74,9.14-3.89-6.36,3.95-13.5,7.02-20.57,9.19Z"/>
  <path class="cls-1" d="M99.63,252.17c-.29-.03-.7.05-.9-.03,6.34-1.06,12.94-1.44,19.27-1.51-6.03,1.2-12.23,1.53-18.37,1.54Z"/>
  <path class="cls-1" d="M70.12,276.43c7.05-10.29,15.31-20.67,26.8-26.19.2-.07.52-.28.66-.21-.14.05-.3.14-.43.21-5.15,3.16-9.77,7.15-14.1,11.36-4.64,4.63-8.47,10.13-12.93,14.82Z"/>
  <path class="cls-1" d="M67.81,271.83c5.92-7.94,12.46-16.4,21.5-20.78-8.38,5.53-14.63,13.72-21.5,20.78Z"/>
  <path class="cls-1" d="M67.79,263.75c5.98-6.33,12.4-13.38,20.07-17.29t0,0h0,0s-.01,0,0,0h-.01,0c-7.17,5.09-13.26,11.84-20.06,17.29Z"/>
  <path class="cls-1" d="M67.23,255.67c4.24-4.35,8.63-9.4,14.04-12.03-4.86,3.61-9.06,8.59-14.04,12.03Z"/>
  <path class="cls-1" d="M68.18,247.19c2.05-2.13,4.36-5.17,7.35-5.63-2.77,1.22-4.82,4.08-7.35,5.63Z"/>
  <path class="cls-1" d="M182.92,257.28c-2.27-4.36-4.52-9-5.8-13.67,2.21,4.33,4.4,9.05,5.8,13.67Z"/>
  <path class="cls-1" d="M186.47,259.18c-1.83-3.59-3.52-7.47-4.6-11.27,1.95,3.53,3.55,7.46,4.6,11.27Z"/>
  <path class="cls-1" d="M191.34,262.13c-1.53-3.15-3.03-6.52-3.76-9.87,1.54,3.14,2.93,6.56,3.76,9.87Z"/>
  <path class="cls-1" d="M194.12,263.49c-1.02-3.03-2.28-6.49-2.46-9.52,1.02,3.08,2.01,6.39,2.46,9.52Z"/>
  <path class="cls-1" d="M202.74,305.06c-2.4-9.53-3.8-19.53-6.28-28.9,3.68,9.12,5.04,19.26,6.28,28.9Z"/>
  <path class="cls-1" d="M199.65,309.42c-1.89-8.01-2.53-16.29-4.65-24.23,3.2,7.44,3.9,16.22,4.65,24.23Z"/>
  <path class="cls-1" d="M196.37,306.05c-1.23-5-2.83-10.37-2.85-15.39,1.11,5.03,2.36,10.29,2.85,15.39Z"/>
  <path class="cls-1" d="M200.55,321.68c-1.22-1.97-2.99-4.31-2.85-6.62.51,2.28,2.16,4.42,2.85,6.62Z"/>
  <path class="cls-1" d="M200.91,326.64c-1.9-2.54-3.6-5.24-5-8.09-.63-1.39-1.5-3.53-.95-4.81h0c-.05,2.22,1.42,4.18,2.41,6.1,1.21,2.22,2.49,4.6,3.54,6.8Z"/>
  <path class="cls-1" d="M199.21,330.49c-2.89-4.1-6.73-8.96-6.74-13.99,0,0,0,0,0,0h0c1.12,5.02,4.71,9.36,6.74,13.99Z"/>
  <path class="cls-1" d="M193.61,329.63c-1.17-1.75-2.56-3.7-3.02-5.69,1.05,1.84,2.27,3.78,3.02,5.69Z"/>
  <path class="cls-1" d="M174.85,381.67c-13.65-.34-27.09-4.2-39.73-9.17,6.92,1.65,13.94,4.15,21,5.74,7.3,1.76,14.79,2.8,22.3,2.49,6.24-.23,12.54-1.29,18.71-1.52-7.35,1.42-14.79,2.63-22.28,2.46Z"/>
  <path class="cls-1" d="M202.21,377.4c4.55-1.63,10.94-4.03,16.15-5.24-5.19,2.24-10.54,4.43-16.15,5.24Z"/>
  <path class="cls-1" d="M192.2,381.62c7.93-.61,15.95-3.19,23.81-4.34-7.76,2.11-15.66,4.99-23.81,4.34Z"/>
  <path class="cls-1" d="M179.23,377.72c-.36-.04-.92.06-1.17-.11,3.17-.24,6.38-.73,9.52-.99,13.96-1.39,27.76-5.39,39.48-13.28,2.26-1.35,4.65-2.83,6.9-4.01-1.17.89-2.36,1.77-3.56,2.62-14.56,11.04-33.09,15.71-51.17,15.78Z"/>
  <path class="cls-1" d="M218.29,373.7c5.77-2.98,11.07-6.96,16.91-9.88-5.1,3.78-10.8,8.03-16.91,9.88Z"/>
  <path class="cls-1" d="M188.75,373.4c-.86,0-1.74,0-2.58-.21-.05-.04.08-.03.11-.02,6.89-.37,13.49-2.92,20.29-3.96-5.64,1.98-11.72,3.93-17.81,4.19Z"/>
  <path class="cls-1" d="M178.73,377.23c-14.59-.57-29.83-2.62-42.64-10.05-.19-.15-.55-.31-.61-.48.27.16.58.31.87.45,7.34,3.22,15.02,5.81,22.9,7.35,6.44,1.19,13.14,1.57,19.48,2.73Z"/>
  <path class="cls-1" d="M134.97,368.95c-4.83-2.33-9.89-4.52-14.07-7.94,4.67,2.39,9.71,5.05,14.07,7.94Z"/>
  <path class="cls-1" d="M180.34,373.94c-7.98-.48-15.95-1.46-23.76-3.13-5.84-1.26-11.74-2.78-16.79-6.06-.71-.47-1.6-.97-2.14-1.53.79.47,1.61.87,2.43,1.28,12.49,6.28,26.85,6.86,40.26,9.45Z"/>
  <path class="cls-1" d="M236,355.86s-.01-.03,0-.03c0,0,0,0,0,0,0,0,.01,0,.02,0,3.37-2.74,4.61-7.03,5.28-11.18.32,4.28-1.23,9.14-5.31,11.21Z"/>
  <path class="cls-1" d="M238.62,358.4s-.05-.08,0-.04h0s0,0,0,0c2.01-1.88,3.03-4.84,4.74-6.91-1.14,2.49-2.28,5.5-4.73,6.95Z"/>
  <path class="cls-1" d="M218.34,363.74c5.15-2.09,10.22-5.42,13.92-9.65,2.36-2.88,3.78-6.39,4.9-9.9-.02.68-.28,1.55-.43,2.29-1.75,8.95-9.89,15.17-18.38,17.27Z"/>
  <path class="cls-1" d="M208.82,363.88c-.1,0-.3-.03-.2-.16.02-.02.03.01.02.02h0s0,.03,0,.04c0,0,0,0,.01,0,.06,0,.12,0,.17,0,0,0,0,0,0,0,2.11-.57,4.34-1.4,6.46-1.65-2.07.8-4.22,1.61-6.45,1.74Z"/>
  <path class="cls-1" d="M108.78,349.84c-6-6.56-11.64-13.45-17.15-20.42-4.81-6.24-9.6-12.66-12.71-19.95-.12-.38-.41-.92-.35-1.25.08.26.21.54.35.8,7.93,14.99,19.75,27.46,29.86,40.81Z"/>
  <path class="cls-1" d="M106.57,343.03c-3.64-4.59-7.08-9.33-10.44-14.13-3.85-5.69-8.51-11.33-10.76-17.79,6.2,11.14,14.54,21.16,21.2,31.92Z"/>
  <path class="cls-1" d="M114.03,344.83c-6.28-7.28-12.78-14.45-18.03-22.54,6.26,7.17,12.4,14.91,18.03,22.54Z"/>
  <path class="cls-1" d="M145.41,361.77c-17.02-10.3-33.18-22.96-44.53-39.49-.45-.68-.88-1.37-1.25-2.09.73.87,1.56,1.98,2.35,2.92,6.24,7.68,12.82,15.26,20.43,21.66,7.25,6.18,15.68,11.06,23,16.99Z"/>
  <path class="cls-1" d="M134.5,360.27c-5.82-3.67-12.21-7.25-16.52-12.67,0-.01.02,0,.02.01,0,0,0,0,0,0h0s0,0,0,0c5.1,4.58,11.35,8.16,16.49,12.65Z"/>
  <path class="cls-1" d="M156.22,362.19c-13.67-7.65-26.34-17.09-37.4-28.18-5.73-5.78-11.52-11.66-15.76-18.64,1.15,1.31,2.46,2.97,3.61,4.31,7.55,8.87,15.59,17.39,24.66,24.72,7.82,6.54,16.88,11.67,24.89,17.79Z"/>
  <path class="cls-1" d="M151.21,355.1c-6.49-4.54-13.15-9.05-18.55-14.9,6.13,4.79,12.77,9.67,18.55,14.9Z"/>
  <path class="cls-1" d="M174.58,356.33c-7.13-4.11-15.26-8.14-20.2-14.8,5.85,5.91,13.75,9.72,20.2,14.8Z"/>
  <path class="cls-1" d="M185.09,356.15c-4.36-1.35-8.9-2.43-12.86-4.75-.11-.07-.47-.33-.37-.44.54.55,1.44.7,2.13.99,5.66,1.74,11.35,3.35,16.81,5.62-1.83-.31-3.84-.92-5.71-1.42Z"/>
  <path class="cls-1" d="M180.84,362.57c-7.03-1.7-14.68-3.81-20.2-8.73,1.71,1.33,4.02,2.28,6.03,3.24,8.5,4.03,17.78,5.2,26.84,7.29-4.14-.28-8.52-1.02-12.67-1.8Z"/>
  <path class="cls-1" d="M185.34,369.47c-8.24-2.33-17.85-3.78-24.19-9.81,7.13,5.06,16.32,6.44,24.19,9.81Z"/>
  <path class="cls-1" d="M198.45,365.34c-.18-.03-.56-.04-.61-.17,2.54-.07,5.1-.71,7.68-.67-2.19.61-4.73.98-7.07.84Z"/>
  <path class="cls-1" d="M197.17,352.93c-6.34-1.73-13.49-3.06-18.34-7.8,1.78,1.42,4.11,2.36,6.27,3.26,5.36,2,10.84,3.51,16.24,5.34-1.29-.11-2.82-.5-4.17-.8Z"/>
  <path class="cls-1" d="M176.09,341.08c-3.8-4.57-8.87-9.28-10.13-15.18,2.4,5.58,7.13,10.01,10.13,15.18Z"/>
  <path class="cls-1" d="M181.64,341.2c-3.35-4.06-8.59-9.8-9.4-14.16,0,0,0,0,0,0,2.56,5.01,6.69,9.33,9.4,14.17Z"/>
  <path class="cls-1" d="M188.69,338.37c-3.4-2.41-6.72-5.04-9.37-8.28,3.2,2.47,6.58,5.36,9.37,8.28Z"/>
  <path class="cls-1" d="M133.35,312.92c-4-6.97-9.33-14.58-9.9-22.52,0,0,0,0,0,0,0,0,0,0,0,.01,1.94,7.94,6.86,15.04,9.91,22.51Z"/>
  <path class="cls-1" d="M133.74,340.58c-6-5.82-11.46-12.16-16.9-18.5-3.61-4.55-7.92-9.06-9.5-14.77-.02-.18-.05-.36-.04-.54,0-.02.03-.02.03,0,0,.17.07.37.11.52,6.35,12.71,17.82,22.23,26.29,33.3Z"/>
  <path class="cls-1" d="M136.36,338.52c-6.64-6.97-14.4-14.03-18.14-22.83,0,0,0,0,0,0,4.92,8.36,12.36,15.19,18.14,22.83Z"/>
  <path class="cls-1" d="M142.79,340.01c-6.36-6.09-12.91-12.25-17.69-19.67,5.64,6.59,12.19,12.97,17.69,19.67Z"/>
  <path class="cls-1" d="M148.79,340.05c-5.66-5.37-12.36-10.67-15.75-17.75,4.47,6.48,10.86,11.67,15.75,17.75Z"/>
  <path class="cls-1" d="M153.85,338.94c-6.43-5.88-13.45-11.63-18.01-19.14,5.43,6.69,12.41,12.57,18.01,19.14Z"/>
  <path class="cls-1" d="M158.19,335.16c-4.41-3.5-8.88-7.39-12.24-11.84,4.2,3.77,8.58,7.63,12.24,11.84Z"/>
  <path class="cls-1" d="M65.32,299.53c-.3-4.27-.43-8.8.4-12.94.1,4.29.12,8.77-.4,12.94Z"/>
  <path class="cls-1" d="M68.78,305.71c-.05-6.3-.75-13.16,1.32-19.08-.96,6.24-.35,12.87-1.32,19.08Z"/>
  <path class="cls-1" d="M74.01,313.18c-.7-8.7-1.56-17.67-.67-26.3.4,8.72.95,17.66.67,26.3Z"/>
  <path class="cls-1" d="M159.26,165.42c-.23-13.54,3.06-26.69,8.11-39.17,5.46-13.55,12.41-27.5,22.86-37.7-13.43,16.2-22.9,35.43-27.86,55.87-1.7,6.87-1.86,14.16-3.11,21Z"/>
  <path class="cls-1" d="M157.22,155c1.22-8.03,3.14-15.99,5.31-23.81,2.15-7.16,4.57-14.6,8.72-20.78-3.15,6.81-5.92,13.81-8.05,21-2.28,7.77-3.59,15.95-5.98,23.59Z"/>
  <path class="cls-1" d="M155.78,148.83c1.14-6.12,2.99-12.06,4.82-18,2.04-6.57,4.23-13.23,8.16-18.93-5.83,11.59-8.96,24.67-12.99,36.92Z"/>
  <path class="cls-1" d="M153.53,147.22c1.31-5.45,2.95-10.76,4.75-16.06,1.65-4.49,3.23-9.5,6.36-13.1-5.11,9.06-7.18,19.66-11.1,29.16Z"/>
  <path class="cls-1" d="M151.38,141.24c2.65-8.49,4.73-17.48,9.53-25.06-3.69,7.99-5.94,17.02-9.53,25.06Z"/>
  <path class="cls-1" d="M147.66,140.95c2.47-7.05,4.54-14.61,8.43-20.95-2.76,6.93-5.29,14.26-8.43,20.95Z"/>
  <path class="cls-1" d="M147,179.25c-1.6-7.02-3.29-14.4-3.07-21.54.94,7.14,2.58,14.42,3.07,21.54Z"/>
  <path class="cls-1" d="M151.34,182.7c-1.45-7.13-3.52-14.67-2.78-21.88.48,7.31,2.32,14.66,2.78,21.88Z"/>
  <path class="cls-1" d="M157.11,185.52c-2.2-6.56-4.89-13.21-5.13-20.2,1.43,6.66,3.87,13.53,5.13,20.2Z"/>
  <path class="cls-1" d="M162.87,187.38c-2.39-6.11-5.65-14.96-5.62-20.3,0,0,0,0,0,0,1.57,6.81,4.2,13.54,5.62,20.31Z"/>
  <path class="cls-1" d="M165.72,185.32c-1.19-4.59-3.12-9.61-2.89-14.26,0,0,0,0,0,0h0c.85,4.67,2.39,9.53,2.89,14.25Z"/>
  <path class="cls-1" d="M292.39,32.04s0,0-.01-.02c-6.93-1.6-14.21-1.99-21.31-2.56-9.29-.41-18.58.28-27.88-.05-.02,0-.02-.03,0-.03,10.79-.78,21.61-1.14,32.41-.39,5.54.62,11.81.8,16.79,3.06Z"/>
  <path class="cls-1" d="M152.51,55.62c2.26-1.14,4.53-2.28,6.82-3.34,0,0,0,0,0,0,0,0,0,0-.04.02,24.02-11.24,49.55-20.15,76.2-21.79,1.64-.11,3.28-.2,4.92-.3-2.5.62-5.32.9-7.95,1.26-14.2,1.53-28.27,4.19-41.78,8.9-13.02,4.23-25.43,10.52-38.16,15.25Z"/>
  <path class="cls-1" d="M185.76,45.68c20.41-6.18,41.23-12,62.61-13.29,1.21-.02,2.59-.11,3.7,0-1.34.17-2.68.34-4.03.5-9.8,1.23-19.66,2.28-29.31,4.48-11.03,2.5-21.96,6.07-32.97,8.31Z"/>
  <path class="cls-1" d="M133.18,72.14c7.27-4.43,14.82-8.37,22.35-12.35,7.34-3.65,14.83-7.86,22.82-9.6-15.68,5.88-30.18,14.72-45.16,21.95Z"/>
  <path class="cls-1" d="M119.08,76.07c9.16-6.51,18.43-13.51,28.54-18.28-9.54,6-18.88,12.63-28.54,18.28Z"/>
  <path class="cls-1" d="M123.64,87.32c29.37-21.53,62.12-39.11,97.74-47.53,1.41-.26,3.29-.78,4.45-.57-1.92.24-3.82.97-5.71,1.48-18.27,5-36.26,11.17-53.01,20.09-15.22,7.8-28.94,17.9-43.46,26.54Z"/>
  <path class="cls-1" d="M208.26,70.29c20.33-14.95,43.36-26.23,67.82-32.49,6.39-1.64,12.86-3.15,19.44-3.77,2.15-.09,4.43-.55,6.51.15.07.04.19.11.16.2-.01.01-.03,0-.02-.02h0c-.18-.19-.44-.18-.68-.23,0,0,0,0,0,0-3.26-.07-6.48.73-9.71,1.09,0,0,.01,0,.02,0,.01,0,.02,0,.03,0-18.36,2.86-36.24,8.81-52.82,17.19-10.73,5.08-20.46,12.22-30.76,17.88Z"/>
  <path class="cls-1" d="M235.11,48.39c10.47-4.21,21.16-9.47,32.37-10.81-11,2.74-21.6,7.54-32.37,10.81Z"/>
  <path class="cls-1" d="M189.94,84.76c3.19-3.2,6.7-6.45,10.56-8.69-3.34,3.06-6.83,6.24-10.56,8.69Z"/>
  <path class="cls-1" d="M173.17,99.78c12.89-16.89,28.24-32.53,46.98-42.85.74-.35,1.56-.86,2.26-1.09-1.61,1.06-3.23,2.16-4.85,3.2-8.3,5.4-16.22,11.35-23.4,18.15-7.56,6.97-13.75,15.44-20.99,22.6Z"/>
  <path class="cls-1" d="M168.02,100.66c4.95-6.7,10.01-14.05,16.78-18.87-6.01,5.79-10.96,12.95-16.78,18.87Z"/>
  <path class="cls-1" d="M53.52,151.52c5.15-9.63,11.33-18.56,17.92-27.25,5.69-7.67,11.52-15.23,18.04-22.2,5.97-6.28,12.01-12.55,18.72-18.04,2.03-1.59,4.02-3.31,6.28-4.57.05,0,.32-.15.33,0,0,.05-.05,0-.04-.02,0,0,0,0,0,0,0,0,0,0,0,0-11.41,9.21-22.1,19.67-31.57,30.93-10.86,12.96-20.14,27.3-29.68,41.14Z"/>
  <path class="cls-1" d="M98.45,99.62c6.06-6.02,12.29-11.81,18.62-17.52,2.55-2.11,5.03-4.49,8.06-5.88.11-.04.24.02.13.15-.06.03,0-.06,0-.09,0,0,0,0-.01-.01-9.43,7.04-17.63,16.05-26.8,23.35Z"/>
  <path class="cls-1" d="M77.28,126.99c4.88-7.11,9.99-14.41,15.85-20.63-4.93,7.1-10.21,14.2-15.85,20.63Z"/>
  <path class="cls-1" d="M118.84,85.69c3.95-3.64,7.99-7.57,12.53-10.34-3.91,3.71-8.21,7.27-12.53,10.34Z"/>
  <path class="cls-1" d="M34.16,200.64c2.2-8.04,5.26-15.84,8.1-23.69,2.41-6.11,4.4-12.99,8.2-18.21h0s0,0,0,0c-6.47,13.44-10.38,28.27-16.3,41.9Z"/>
  <path class="cls-1" d="M39.65,200.51c7.72-23.9,16.85-51.72,34.22-70.2-8.4,11.07-15.95,22.82-21.12,35.77,0,0,0-.02,0-.02,0,0,0,0,0,0-4.8,11.28-8.26,23.29-13.11,34.45Z"/>
  <path class="cls-1" d="M53.64,179.02c12.06-28.4,28.98-54.77,49.54-77.76,1.42-1.38,2.88-2.93,4.45-3.99-.92.94-1.81,1.92-2.67,2.91-12.28,13.76-23.41,28.56-32.99,44.33-6.93,11.02-11.97,23.27-18.32,34.51Z"/>
  <path class="cls-1" d="M54.2,170.25c2.54-5.75,5.38-11.36,8.41-16.86,1.75-2.9,3.32-6.32,5.91-8.44-5.57,7.88-9.06,17.29-14.33,25.3Z"/>
  <path class="cls-1" d="M73.77,124.92c4.31-5.88,8.85-11.57,13.74-16.98,1.09-1.06,2.35-2.74,3.54-3.3-5.82,6.61-11.1,14.05-17.28,20.28Z"/>
  <path class="cls-1" d="M67.23,125.9c3.91-5.44,8.08-10.75,12.26-15.97,4.05-5,8.1-10.3,13.05-14.31-8.8,9.76-16.69,20.5-25.32,30.28Z"/>
  <path class="cls-1" d="M109.88,99.12c3.66-4.1,7.42-8.46,11.77-11.69-3.63,4.14-7.64,8.18-11.77,11.69Z"/>
  <path class="cls-1" d="M56.89,188.99c9.12-21.37,18.8-42.84,32.2-61.93.47-.64.95-1.28,1.43-1.91-.52,1.06-1.31,2.23-1.95,3.32-5.45,8.96-11.09,17.81-15.73,27.23-5.56,10.95-10.01,22.63-15.95,33.29Z"/>
  <path class="cls-1" d="M94.88,121.6c3.48-4.58,6.6-10.18,11.16-13.57-3.8,4.3-7.15,9.45-11.16,13.57Z"/>
  <path class="cls-1" d="M76.12,163.95c3.28-7.14,6.46-14.73,11.09-21.01-3.6,6.99-7.03,14.35-11.09,21.01Z"/>
  <path class="cls-1" d="M30.31,303.03c-2.56-11.3-4.5-22.78-5.29-34.35,0,0,0,.01,0,.02-.92-14.23-.03-28.5,1.92-42.61,1.44-7.6,2.07-16.06,5.11-23-2.55,10.82-4.43,21.97-5.62,33.07,0,0,0,0,0-.01v-.03c-1.2,12.21-1.41,24.63-.34,36.88.83,10.06,3.25,20.06,4.21,30.03Z"/>
  <path class="cls-1" d="M33.31,213.67c.55-3.42,1.1-7.73,2.38-10.55-.53,3.54-1.31,7.21-2.38,10.55Z"/>
  <path class="cls-1" d="M39.08,334.94c-2.2-5.03-4.12-10.45-5.14-15.76,2.1,5.08,3.94,10.48,5.14,15.76Z"/>
  <path class="cls-1" d="M29.38,313.15c-1.8-7.71-4.03-15.57-3.93-23.53,0,0,.02-.01.03-.01.02,0,.02.02,0,.03h0c1.02,7.82,3.25,15.69,3.89,23.52Z"/>
  <path class="cls-1" d="M30.02,244.98c.33-8.57-.34-17.65,2.02-25.9-1.09,8.47-.8,17.46-2.02,25.9Z"/>
  <path class="cls-1" d="M36.74,303.28c-4.28-16.36-7.36-33.34-6.03-50.3.05-.24.03-.59.15-.72-.04,1.08.04,2.17.06,3.24.38,7.79.41,15.55,1.57,23.26,1.16,8.19,3.28,16.37,4.25,24.52Z"/>
  <path class="cls-1" d="M39.08,217.83c.62-4.31,1.34-8.87,2.97-12.83-.69,4.3-1.62,8.78-2.97,12.83Z"/>
  <path class="cls-1" d="M46.44,197.76c1.36-4.84,2.33-10.44,4.94-14.59-1.64,4.73-2.91,10-4.94,14.59Z"/>
  <path class="cls-1" d="M39.85,286.53c-1.61-12.07-2.17-24.27-2.69-36.42-.1-9.02-.74-18.64,1.19-27.32-.66,10.68-.86,21.49-.4,32.21.4,10.49,1.83,21.13,1.9,31.54Z"/>
  <path class="cls-1" d="M41.36,252.03c.18-8.36.03-17.06,1.78-25.18-.47,8.37-.71,16.96-1.78,25.18Z"/>
  <path class="cls-1" d="M33.97,256.4c-.42-4.81-.8-10.08-.28-14.7.52,4.82.62,9.92.28,14.7Z"/>
  <path class="cls-1" d="M46.79,211.78c.98-4.78,1.9-9.78,3.8-14.19-.92,4.79-2.23,9.66-3.8,14.19Z"/>
  <path class="cls-1" d="M73.72,408.04c-8.54-10.89-15.83-22.64-22.37-34.83-9.56-16.87-17.18-34.97-21.49-53.9-.2-.94-.47-1.92-.59-2.84.31.78.62,1.83.94,2.71,3.8,12.31,7.48,24.72,12.97,36.42,5.34,11.35,11.64,22.26,17.96,33.08,4.08,6.49,8.72,12.83,12.57,19.37Z"/>
  <path class="cls-1" d="M48.73,362.61c-2.67-5.58-5.25-11.18-7.47-16.95-.7-2.12-1.96-4.69-1.91-6.75,2.71,7.92,6.78,15.74,9.38,23.7Z"/>
  <path class="cls-1" d="M33.86,313.21c-.65-2.57-1.37-5.24-1.27-7.91.03-.09.06-.24.18-.24.04.01-.02.04-.04.05.22,2.62,1.04,5.5,1.13,8.1Z"/>
  <path class="cls-1" d="M92.51,429.28c-5.55-5.51-11.37-11.24-15.62-17.73,5.28,5.77,10.98,11.53,15.62,17.73Z"/>
  <path class="cls-1" d="M107.12,436.62c-13.23-11.13-25.18-23.74-35.53-37.58-7.1-9.22-14.21-18.67-18.84-29.41-.12-.37-.41-.92-.25-1.2.07.69.59,1.32.88,1.96,9.4,16.67,20.88,32.08,33.75,46.22,6.4,6.91,13.7,13.12,19.99,20Z"/>
  <path class="cls-1" d="M113.06,445.7c-4.95-3.8-10.21-7.69-14.23-12.39,4.9,3.89,9.88,8.02,14.23,12.39Z"/>
  <path class="cls-1" d="M87.59,410.6c-17.12-20.77-37.3-46-43.97-70.43,4.74,11.82,10.08,23.42,17.15,34.07,8.04,12.73,18.22,24.15,26.82,36.36Z"/>
  <path class="cls-1" d="M112.78,433.72c-6.57-5.57-13.57-10.98-19.06-17.6h0s0,0,0,0c6.27,5.65,13.2,11.47,19.06,17.6Z"/>
  <path class="cls-1" d="M38.54,316.53c-.89-2.89-1.78-5.81-2.01-8.85.03-.21-.04-.38.12-.52.04,0,0,.05,0,.04.55,3.05,1.61,6.25,1.89,9.33Z"/>
  <path class="cls-1" d="M81.39,391.85c-14.62-19.75-29.33-40.38-36.52-64.13,1.26,2.75,2.53,5.84,3.74,8.69,4.2,9.97,9.1,19.62,14.86,28.76,5.66,9.06,12.35,17.65,17.91,26.68Z"/>
  <path class="cls-1" d="M67.14,378.67c-3.98-6.27-8.59-12.52-11.39-19.33,4,6.27,7.96,12.81,11.39,19.33Z"/>
  <path class="cls-1" d="M67.3,362.81c-8.74-16.8-17.31-33.82-23.08-51.91-1.89-5.78-3.82-11.62-4.58-17.67-.02-.27-.06-.6,0-.87.01-.02.02-.04.05-.04.02,0,.02.02,0,.03,0,0,0,.01-.01.02,2.78,11.77,6.56,23.42,11.07,34.67,5,12.13,11.47,23.76,16.54,35.77Z"/>
  <path class="cls-1" d="M56.57,346.51c-2.42-4.17-4.98-8.37-6.33-13.03,2.27,4.09,4.49,8.74,6.33,13.03Z"/>
  <path class="cls-1" d="M46.38,337.62c-.69-1.51-1.38-3.06-2.03-4.55-1.8-4.01-3.47-8.08-4.64-12.32,2.69,5.27,4.78,11.28,6.67,16.87Z"/>
  <path class="cls-1" d="M61.18,340.89c-3.35-7.17-6.26-14.52-9.31-21.82-2.02-4.92-4.17-10.05-5.21-15.2,4.68,12.37,10.04,24.66,14.52,37.02Z"/>
  <path class="cls-1" d="M108,383.9c-17.61-18.29-35.1-37.68-45.96-60.84-.42-1.01-.77-2.03-1.03-3.09.36.67.68,1.57,1.08,2.29,6.15,11.86,13.28,23.22,21.64,33.65,7.65,9.66,16.67,18.41,24.27,27.99Z"/>
  <path class="cls-1" d="M104.8,373.45c-5.48-6.51-10.36-13.44-15.4-20.28-5.8-8.19-12.08-16.44-16.29-25.49,4.83,7.26,9.34,14.72,14.4,21.83,5.66,8.02,12.01,15.76,17.29,23.94Z"/>
  <path class="cls-1" d="M89.13,369.97c-5.27-6.68-10.13-13.66-15.11-20.56-2.42-3.53-5.08-7.23-6.63-11.15,6.82,10.81,14.91,21.01,21.74,31.7Z"/>
  <path class="cls-1" d="M76.42,342.58c-4.07-7.33-7.64-14.94-11.37-22.45-2.31-4.63-4.59-9.32-5.84-14.35,5.24,12.33,11.84,24.53,17.2,36.8Z"/>
  <path class="cls-1" d="M124.32,414.31c-16.25-15.54-32.39-31.49-45.19-50.07-3.1-4.54-6.31-9.01-9.06-13.77-.82-1.58-2.11-3.46-2.19-5.11h0s0,0,0,0c6.85,12.46,15.77,24.64,24.91,35.61,9.81,11.72,21.43,21.98,31.53,33.33Z"/>
  <path class="cls-1" d="M106.26,403.81c-6.32-7.13-12.22-14.63-18.16-22.05-4.88-6.45-10.65-12.85-13.54-20.4,8.89,15.29,21.38,28.29,31.7,42.45Z"/>
  <path class="cls-1" d="M85.17,383.85c-4.23-5.33-8.61-10.62-11.91-16.59,4.25,5.16,8.33,10.96,11.91,16.59Z"/>
  <path class="cls-1" d="M72.71,363.29c-2.24-3.59-5.44-7.54-6.39-11.45h0s0,0,0,0c2.04,3.78,4.61,7.58,6.4,11.45Z"/>
  <path class="cls-1" d="M139.75,442.68c-18.83-16.1-36.14-34.23-50.63-54.34,1.22,1.24,2.45,2.8,3.65,4.18,7.26,8.81,14.35,17.62,22.2,25.92,7.83,8.49,16.95,15.9,24.78,24.25Z"/>
  <path class="cls-1" d="M105.98,415.53c-3.62-4.15-7.22-8.33-10.63-12.64-2.13-2.92-4.94-5.77-6.22-9.09,5.34,7.39,11.71,14.26,16.85,21.73Z"/>
  <path class="cls-1" d="M88.79,394.53c-3.13-3.63-6.3-7.22-8.89-11.24-.15-.37-.65-.94-.47-1.3.05,0,.01.03,0,.05,0,0,0,0,0,0,3,4.14,6.61,8.2,9.36,12.49Z"/>
  <path class="cls-1" d="M95.28,410.52c-4.65-5.21-9.81-10.4-13.39-16.32,4.66,5.21,9.32,10.7,13.39,16.32Z"/>
  <path class="cls-1" d="M130.67,444.68c-3.7-3.13-7.42-6.44-10.88-9.75-4.83-4.66-10-9.09-13.87-14.6,1.82,1.97,3.98,3.97,5.92,5.9,0,0-.01-.01-.02-.02,6.24,6.17,12.91,12.11,18.86,18.46Z"/>
  <path class="cls-1" d="M179.83,419.95c-21.1-14.91-42.78-30.64-59.08-50.65h0s0,0,0,0h0s0,0,0,0h0s0,0,0,0c8.15,8,15.89,16.42,24.6,23.82,9.18,8,19.33,14.9,28.89,22.37h0s0,0,0,0c1.81,1.46,3.89,2.97,5.59,4.46Z"/>
  <path class="cls-1" d="M133.8,386.76c-2.15-2.07-4.37-4.22-6.43-6.34-2.67-2.87-5.81-5.79-7.78-9.09,4.82,4.98,9.87,10.07,14.2,15.42Z"/>
  <path class="cls-1" d="M148.46,401.83c-10.74-9.47-22.1-18.71-31.51-29.43,10.5,9.76,21.33,19.46,31.51,29.43Z"/>
  <path class="cls-1" d="M158.53,413.27c-8.83-7.22-17.26-14.9-25.73-22.54-8.41-7.86-16.93-15.74-23.94-24.91-.09-.12-.17-.24-.25-.35,0-.01,0-.03.02-.02.62.62,1.24,1.27,1.84,1.9,6.47,6.75,12.73,13.71,19.61,20.05,9.33,8.76,19.35,17,28.44,25.88Z"/>
  <path class="cls-1" d="M137.09,401.03c-5.12-4.89-10.01-9.97-14.89-15.09-4.86-5.1-10.09-10.14-14.11-15.83,9.68,10.26,19.68,20.46,29,30.91Z"/>
  <path class="cls-1" d="M130.34,398.63c-5.01-4.54-10.1-9.02-14.36-14.29,5.05,4.27,9.93,9.39,14.36,14.29Z"/>
  <path class="cls-1" d="M154.29,423.29c-13.8-11.03-27.73-22.12-40.38-34.42-.72-.8-1.62-1.65-2.17-2.49.48.45.96.87,1.45,1.3,13.26,12.33,27.71,23.58,41.11,35.61Z"/>
  <path class="cls-1" d="M148.79,426.06c-9.03-7.48-17.55-15.53-26.25-23.39-6.62-6.17-13.53-12.17-19.12-19.33-.2-.33-.58-.69-.66-.99.24.27.51.56.75.82,14.19,15.19,30.47,28.45,45.27,42.89Z"/>
  <path class="cls-1" d="M145.77,427.18c-7.46-6.56-15.94-12.79-22.14-20.46,7.23,6.9,15.13,13.43,22.14,20.46Z"/>
  <path class="cls-1" d="M171.65,410.21c-15.52-12.16-31.22-24.39-45-38.56-.41-.5-1-1.03-1.3-1.51.44.36.85.74,1.28,1.12,14.31,13.75,30.13,25.99,45.02,38.95Z"/>
  <path class="cls-1" d="M164.55,399.01c-7.64-6.28-15.69-12.45-22.43-19.6,7.72,6.2,15.3,12.85,22.43,19.6Z"/>
  <path class="cls-1" d="M135.12,425.44c-2.75-2.74-6.13-5.52-7.93-8.81,2.62,2.83,5.63,5.74,7.93,8.81Z"/>
  <path class="cls-1" d="M194.06,486.23c-26.57-7.47-52.63-18.01-74.75-34.78-1.46-1.17-3.17-2.28-4.45-3.52,1.09.71,2.22,1.34,3.31,2.05,11.59,7.82,23.22,15.7,36.11,21.26,12.82,6.07,26.78,9.68,39.79,14.99Z"/>
  <path class="cls-1" d="M122.71,448.96c-1.94-1.31-3.89-2.67-5.48-4.38,0-.08.05-.08.04-.01,1.91,1.29,3.86,2.82,5.44,4.4Z"/>
  <path class="cls-1" d="M249.01,497.05c-8.55-.58-17.03-1.94-25.51-3.15-7.21-1.12-14.72-2.32-21.4-5.12,15.38,4.13,31.4,5.35,46.92,8.27Z"/>
  <path class="cls-1" d="M186.77,487.66c-5.55-1.84-11.33-3.59-16.33-6.46,5.55,1.81,11.14,4,16.33,6.46Z"/>
  <path class="cls-1" d="M235.3,490.09c-28.18-2.03-55.39-10.92-81.07-22.37-1.99-.98-4.21-1.9-6-3.08,1.27.56,2.6,1.01,3.88,1.54,15.41,6.47,30.86,13.01,47.11,17.12,12.93,3.66,26.31,4.78,39.51,6.98-1.06.02-2.31-.13-3.44-.2h0Z"/>
  <path class="cls-1" d="M143.24,462.04c-4.09-2.26-8.55-4.27-12.04-7.38,4,2.21,8.29,4.76,12.04,7.38Z"/>
  <path class="cls-1" d="M182.13,475.87c-7.95-3.08-15.73-6.56-23.52-9.99-7.28-3.36-14.77-6.7-20.96-11.89,4.12,2.54,8.68,4.94,13.01,7.26,10.27,5.27,21.26,9.45,31.48,14.62Z"/>
  <path class="cls-1" d="M147.3,455.09c-3.64-2.05-7.73-4.02-10.69-6.88,3.61,2.13,7.39,4.41,10.69,6.88Z"/>
  <path class="cls-1" d="M216.19,484.68c-8.37-2.14-17.03-4.07-24.99-7.22,8.43,1.9,16.89,4.48,24.99,7.22Z"/>
  <path class="cls-1" d="M262.6,497.33c-3.14-.02-6.28-.16-9.4-.51-.16,0-.25-.11-.05-.16.06.02-.04.05-.06.08,13.78-.22,27.58-.92,41.16-3.35,15.74-2.49,30.79-6.86,45.8-12.02,2.68-.82,5.37-1.57,8.09-2.28-2.52,1.13-5.27,2.13-7.9,3.13-24.84,9.06-51.14,14.66-77.62,15.12Z"/>
  <path class="cls-1" d="M251.94,493.11c-1.97-.05-3.96,0-5.9-.38-.24-.06.09-.27-.04-.08,0,0,0,0,0,0,.02,0,.04.02.07.02,0,0,0,0,0,0,6.02-.25,12.18-.65,18.12-.23-4.06.41-8.17.71-12.23.67Z"/>
  <path class="cls-1" d="M274.52,491.19c-.61-.07-1.56.03-2-.25,1.54,0,3.18-.3,4.76-.29,1.45,0,3.09-.05,4.43.09-2.38.32-4.8.54-7.2.46Z"/>
  <path class="cls-1" d="M360.66,472.47c9.1-4.94,18.52-9.47,27.15-15.18-.02.01-.03.02-.05.03,11.2-6.95,21.26-15.52,31.14-24.18,1.86-1.52,3.81-3.19,5.69-4.56-11.37,11.62-24.19,21.96-37.95,30.53-8.19,5.17-16.86,10.14-25.96,13.36Z"/>
  <path class="cls-1" d="M344.83,476.67c7.49-3.86,15.26-7.1,22.64-11.15,8.51-4.56,16.68-9.71,25.35-13.97-.96.73-2.22,1.46-3.28,2.16-14.29,8.63-28.92,17.57-44.71,22.96Z"/>
  <path class="cls-1" d="M297.38,488.74c9.27-2.34,18.73-4.67,28.09-6.21-9.22,2.47-18.67,5.29-28.09,6.21Z"/>
  <path class="cls-1" d="M433.53,415.92c2.77-3.83,5.96-7.61,9.46-10.66-2.81,3.8-5.99,7.57-9.46,10.66Z"/>
  <path class="cls-1" d="M394.96,445.22c12.63-9.69,24.03-21.02,36.08-31.23-5.39,6-11.41,11.42-17.45,16.77-5.86,5.21-11.86,10.63-18.63,14.45Z"/>
  <path class="cls-1" d="M332.24,477.67c7.57-3.62,15.55-6.81,23.4-9.53-7.62,3.49-15.42,7.25-23.4,9.53Z"/>
  <path class="cls-1" d="M256.48,487.13c-11.68-.2-23.8-.61-34.91-4.49-.49-.22-1.95-.92-.7-1.16,0,.09-.32.14-.4.25,1.94,1.36,4.69,1.33,6.97,1.92,4.46.76,8.91,1.44,13.4,1.96,15.94,1.9,31.93-.54,47.89-.48-10.6,1.36-21.52,1.69-32.25,2.01Z"/>
  <path class="cls-1" d="M269.85,416.06c-12.3-8.24-24.72-16.97-33.78-28.87-1.62-2.24-3.39-4.43-4.61-6.92-.09-.2-.19-.56-.11-.76,0,0,0,0,0,0,.48,1.76,2.36,3.32,3.49,4.89,3.07,3.69,6.09,7.46,9.53,10.83,7.7,7.84,17.26,13.71,25.48,20.83Z"/>
  <path class="cls-1" d="M242.13,401.62c-3.89-3.26-8.02-6.68-10.9-10.78,3.77,3.42,7.67,6.94,10.9,10.78Z"/>
  <path class="cls-1" d="M228.04,398.55c-2.59-2.48-5.24-5.2-7.11-8.18,2.6,2.47,5.13,5.28,7.11,8.18Z"/>
  <path class="cls-1" d="M216.53,396.96c-2.05-1.97-4.65-4.26-5.85-6.64,1.98,2.11,4.24,4.29,5.85,6.64Z"/>
  <path class="cls-1" d="M270.96,422.82c-5.17-2.2-10.24-4.62-15.26-7.13-5.43-2.71-11.32-5.42-15.39-9.95,5.5,4.33,12.03,7.18,18.2,10.46,4.17,2.15,8.46,4.37,12.45,6.61Z"/>
  <path class="cls-1" d="M319.99,430.4c-11.89-1.95-32.77-3.71-41.65-11.76-.08-.11-.15-.2-.17-.33,0-.02.02-.03.03,0,.03.12.12.2.2.28,12.36,7.79,27.9,7.99,41.59,11.82Z"/>
  <path class="cls-1" d="M292.92,431.96c-4.71-1.29-9.83-2.47-14-4.93,4.66,1.48,9.6,2.95,14,4.93Z"/>
  <path class="cls-1" d="M447.24,400.36c6.98-9.01,12.83-19.17,19.84-28.07-3.81,6.55-7.99,12.89-12.33,19.11-2.3,3.09-4.59,6.54-7.51,8.96Z"/>
  <path class="cls-1" d="M467.48,368.38s-.02-.03,0-.03h0c1.43-2.98,2.9-6.23,4.83-8.86-1.35,3.05-2.71,6.32-4.83,8.89Z"/>
  <path class="cls-1" d="M440.58,402.57c5.72-6.52,10.61-14.09,16.56-20.36-5.1,7.01-9.94,14.81-16.56,20.36Z"/>
  <path class="cls-1" d="M396.32,414.15c13.44-6.49,25.85-14.64,38.78-22.03-12.07,8.33-24.89,17.08-38.78,22.03Z"/>
  <path class="cls-1" d="M443.63,383.58c2.02-1.97,4.36-3.87,6.7-5.27-2.04,1.94-4.3,3.94-6.7,5.27Z"/>
  <path class="cls-1" d="M428.6,400.84c3.65-3.48,7.72-6.8,11.86-9.55-3.68,3.45-7.57,7.01-11.86,9.55Z"/>
  <path class="cls-1" d="M458.07,370.65c6.57-6.97,12.42-14.82,19.12-21.56-5.77,7.61-11.65,15.64-19.12,21.56Z"/>
  <path class="cls-1" d="M453.17,380.1c3.62-4.01,7.23-8.25,11.27-11.76-3.36,4.17-6.94,8.66-11.27,11.76Z"/>
  <path class="cls-1" d="M422.57,426.73s.01-.03.02-.02c1.42-1.46,2.98-3.21,4.63-4.35-1.27,1.46-3,3.48-4.65,4.37Z"/>
  <path class="cls-1" d="M371.76,459.22s.03-.02.04,0c7.45-4.68,14.87-9.89,22.54-14.11-7.32,4.91-14.48,10.7-22.58,14.12Z"/>
  <path class="cls-1" d="M405.5,429.91c9.84-8.29,19.08-17.25,28.83-25.63-8.65,9.3-18.23,18.59-28.83,25.63Z"/>
  <path class="cls-1" d="M434.17,402.17s-.02,0-.03-.02c0-.01,0-.03.02-.02,0,0,0,0,0,0,4.12-4.65,8.36-9.5,13.01-13.51-4,4.79-8.09,9.71-13.01,13.55Z"/>
  <path class="cls-1" d="M427.73,424.66s.02-.04.04-.04h0s.02,0,.03,0c2.69-3.35,5.64-6.85,8.81-9.69-2.73,3.42-5.39,7.09-8.88,9.74Z"/>
  <path class="cls-1" d="M211.05,400.95c-4.15-3.08-8.38-6.41-11.78-10.21,4.2,3.01,8.3,6.49,11.78,10.21Z"/>
  <path class="cls-1" d="M258.31,425.86c-7.7-3.15-15.14-6.81-22.5-10.66-3.69-1.95-7.35-4.02-10.75-6.43-1.2-.94-3.22-2.21-3.67-3.37,11.18,8.39,24.99,13.3,36.92,20.46Z"/>
  <path class="cls-1" d="M260.89,422.46c-3.39-1.27-7.25-2.55-10.06-4.69,3.34,1.41,7.01,2.78,10.06,4.69Z"/>
  <path class="cls-1" d="M193.69,404.18c-3.82-3.75-8.35-7.58-10.69-12.37,3.36,4.23,7.58,8,10.69,12.37Z"/>
  <path class="cls-1" d="M208.39,414.3c-3.18-2.04-6.61-4.25-9.09-7,3.15,2.11,6.39,4.42,9.09,7Z"/>
  <path class="cls-1" d="M176.08,455.59c-7.03-3.28-13.89-6.95-20.75-10.59-6.13-3.28-12.4-6.69-17.2-11.83-.19-.25-.55-.58-.6-.82.21.22.45.45.67.66,11.49,9.24,25.47,14.93,37.88,22.57Z"/>
  <path class="cls-1" d="M169.41,457.43c-5.76-2.73-12.23-5.35-17.05-9.32,5.68,3.01,11.7,5.84,17.05,9.32Z"/>
  <path class="cls-1" d="M189,473.79c-6.46-2.49-12.79-5.29-19.11-8.11-5.67-2.55-11.86-5.17-16.62-8.91,11.61,6.2,24.14,11.03,35.72,17.02Z"/>
  <path class="cls-1" d="M196.39,471.32c-5.26-1.77-10.52-3.65-15.43-6.25-.54-.35-1.57-.79-1.73-1.27h0c5.57,2.61,11.78,4.6,17.17,7.52Z"/>
  <path class="cls-1" d="M252.37,475.32c-11.38-.71-22.84-1.44-34.07-3.51-11.68-2.4-23.14-6.06-34.03-10.92-.73-.39-1.74-.68-2.25-1.21.44.26,1,.41,1.5.59,12.1,4.1,24.02,8.88,36.65,11.12,11.63,2,23.46,2.28,35.13,4.03-.89.05-1.99-.08-2.96-.1,0,0,.02,0,.02,0Z"/>
  <path class="cls-1" d="M215.49,476.14c-4.84-1.03-10.04-1.66-14.52-3.77.76.34,1.91.46,2.82.67,6.18,1.02,12.22,2.54,18.26,4.16-2.1-.22-4.43-.71-6.6-1.07,0,0,.04,0,.04.01Z"/>
  <path class="cls-1" d="M195.43,460.98c-5.34-2.12-11.53-4.1-15.92-7.54,5.18,2.5,10.96,4.64,15.92,7.54Z"/>
  <path class="cls-1" d="M162.99,444.62c-3.57-2.11-7.83-4.26-10.51-7.23,0,0,0,0,0,0,3.49,2.33,7.34,4.54,10.51,7.23Z"/>
  <path class="cls-1" d="M260.24,480.71c-4.95-.09-10.09-.5-14.84-1.51,9.69.51,19.4.91,29.11.61,6.64-.15,13.47-.35,20.02-.06-11.4.84-22.86,1.1-34.29.96Z"/>
  <path class="cls-1" d="M300.63,482.33c-.19,0-.14-.16-.11-.08,6.08-1.36,12.4-3.22,18.56-4.11-6.04,1.73-12.16,3.78-18.45,4.19Z"/>
  <path class="cls-1" d="M315.73,473.03c10.06-2.39,20.15-4.93,29.87-8.49,8.68-3.1,16.93-7.25,25.59-10.41-.81.55-1.91,1.03-2.81,1.53-16.53,8.03-34.38,15.28-52.65,17.37Z"/>
  <path class="cls-1" d="M349.49,457.95c5.66-1.89,11.51-4.82,17.33-6.31-5.57,2.48-11.27,5.57-17.33,6.31Z"/>
  <path class="cls-1" d="M297.22,472.76c-.27-.02-.53-.03-.77-.17-.03-.03.02-.03.04-.02,2.99.02,5.87-1.45,8.8-2.03,4.22-1.07,8.43-1.94,12.68-2.87-6.68,2.05-13.68,4.54-20.75,5.09Z"/>
  <path class="cls-1" d="M359.19,427.46c9.17-2.02,18.02-5.37,27.19-7.47-8.63,3.21-17.93,6.83-27.19,7.47Z"/>
  <path class="cls-1" d="M368.13,431.01c4.22-2.11,8.79-3.92,13.27-5.11-4.24,2.05-8.75,4.02-13.27,5.11Z"/>
  <path class="cls-1" d="M250.65,437.57c-7.6-2.57-15.64-4.9-22.6-8.76,7.6,2.64,15.34,5.44,22.6,8.76Z"/>
  <path class="cls-1" d="M259.89,435.56c-4.33-1.27-8.94-2.61-12.76-4.89,4.31,1.36,8.76,2.91,12.76,4.89Z"/>
  <path class="cls-1" d="M321.69,437.07c-3.89-.12-7.8-.26-11.67-.69-3.18-.41-6.61-.74-9.57-1.74.96.16,1.93.26,2.9.35,11.86,1.24,24,1.02,35.77,2.03-5.8.24-11.62.24-17.43.06Z"/>
  <path class="cls-1" d="M330.49,431.14c-1.19-.12-2.74.1-3.72-.42,7.31-.1,15.07-1.23,22.43-.83-6.21.81-12.45,1.34-18.71,1.25Z"/>
  <path class="cls-1" d="M308.83,440.18c-3.48-.14-7.02-.33-10.4-1.21,4.68.07,9.56.5,14.26,1.23-1.16.1-2.6-.01-3.85-.02Z"/>
  <path class="cls-1" d="M279.1,435.98c-4.35-.93-8.97-1.95-12.91-3.86,4.37.97,8.85,2.26,12.91,3.86Z"/>
  <path class="cls-1" d="M394.34,419.21s.03-.04.03-.02c2.41-1.06,4.8-2.73,7.28-3.47-2.28,1.37-4.66,3.06-7.31,3.49Z"/>
  <path class="cls-1" d="M48.77,223.5c.33-2.67.61-5.67,1.73-8.04-.45,2.65-.86,5.53-1.73,8.04Z"/>
  <path class="cls-1" d="M47.1,286.41c-.89-9.49-2.27-19.36-1.1-28.78.23,9.57,1.27,19.31,1.1,28.78Z"/>
  <path class="cls-1" d="M50,269.19c-.25-4.18-.57-9.43.39-13.08,0,4.3.2,8.85-.39,13.08Z"/>
  <path class="cls-1" d="M53.64,257.22c-.05-1.71,0-3.46.36-5.15.02-.03.07-.35.21-.25h0s.02.03,0,.03c0,0-.01,0-.02,0h-.02,0,0s-.02.05-.03.07c0,.06-.01.12-.02.18h0c0,1.69-.11,3.55-.47,5.12Z"/>
  <path class="cls-1" d="M52.34,296.35c-.66-2.83-1.41-5.94-1.11-8.78.47,2.88,1.09,5.92,1.11,8.78Z"/>
  <path class="cls-1" d="M56.41,290.55c-.59-3.73-1.5-8.14-.89-11.65,0,0,0,0,0,0h0,0,0,0c.35,3.84.99,7.86.89,11.65Z"/>
  <path class="cls-1" d="M254.14,36.32c5.73-1.49,11.62-3.31,17.54-3.31-5.7,1.17-11.78,2.72-17.54,3.31Z"/>
  <path class="cls-1" d="M233.37,46.09c4.67-2.11,9.61-4.47,14.61-5.22-4.79,1.86-9.72,3.89-14.61,5.22Z"/>
  <path class="cls-1" d="M237.68,40.56c3.34-1.51,7.07-3.68,10.68-3.71-3.53.96-7.16,2.78-10.68,3.71Z"/>
  <path class="cls-1" d="M187.45,69.67c6.5-4.93,13.35-9.35,20.15-13.85,6.51-4.16,13.26-8.59,20.48-11.17-14.09,7.34-27.09,16.9-40.63,25.02Z"/>
  <path class="cls-1" d="M227.34,41.62c2.32-1.08,5.13-2.63,7.65-2.77,0,0,0,0,0,0,0,.01-.03,0-.03,0,0,0-.01,0-.02,0-2.48.94-5.08,2.14-7.59,2.78Z"/>
  <path class="cls-1" d="M196.9,67.74c4.95-3.71,9.95-8.32,15.68-10.47-5.23,3.32-10.25,7.51-15.68,10.47Z"/>
  <path class="cls-1" d="M199.66,53.9c4.78-2.62,9.87-6.12,15.15-7.07-5.02,2.1-10.03,5.19-15.15,7.07Z"/>
  <path class="cls-1" d="M218.47,53.18c4.35-2.44,9.16-5.48,13.79-6.65-4.47,2.32-9.13,4.88-13.79,6.65Z"/>
  <path class="cls-1" d="M165.05,110.82c1.72-2.66,3.39-6.14,6.12-7.7-2.27,2.28-3.83,5.49-6.12,7.7Z"/>
  <path class="cls-1" d="M156.3,115.9c1.63-3.41,3.48-7.37,6.11-9.89h0c-2.02,3.23-3.76,6.94-6.11,9.89Z"/>
  <path class="cls-1" d="M173.9,85.86c4.12-4.46,8.15-9.56,13.36-12.6-4.53,4.08-8.64,8.83-13.36,12.6Z"/>
  <path class="cls-1" d="M176.16,79.64c2-2.34,4.19-4.84,6.7-6.52-2.04,2.32-4.32,4.67-6.7,6.52Z"/>
  <path class="cls-1" d="M161.46,68.81c6.16-4.21,12.34-8.44,18.97-11.88.94-.41,1.88-.99,2.91-1.01-3.43,1.38-6.58,4.12-9.87,5.94-3.94,2.36-8.06,4.79-12.01,6.95Z"/>
  <path class="cls-1" d="M143.07,82.99c2.78-2.65,5.79-5.42,9.08-7.26-2.81,2.63-5.89,5.25-9.08,7.26Z"/>
  <path class="cls-1" d="M119.92,101.22c3.48-4.15,7.09-8.48,11.31-11.77-3.45,4.19-7.32,8.23-11.31,11.77Z"/>
  <path class="cls-1" d="M139.75,171.46c-.12-11.82-.15-32.63,5.42-42.86.03-.02.14-.14.22-.17.02,0,.03.02.01.03-.01,0-.03.02-.04.03-5.19,13.54-3.96,28.8-5.61,42.97Z"/>
  <path class="cls-1" d="M135.05,165.58c.08-7.07-.44-14.72,1.65-21.43-.85,7.04-.54,14.44-1.65,21.43Z"/>
  <path class="cls-1" d="M130.17,155.71c-.15-3.92-.16-8.06.53-11.85.26,3.93.05,8.04-.53,11.85Z"/>
  <path class="cls-1" d="M126,152.23c.2-3.93.46-8.08,1.56-11.79-.19,3.94-.69,8.03-1.56,11.79Z"/>
</svg>