<?xml version="1.0" encoding="UTF-8"?>
<svg id="Layer_1" data-name="Layer 1" xmlns="http://www.w3.org/2000/svg" viewBox="0 0 698.3 105.98">
  <defs>
    <style>
      .cls-1 {
        fill: #e4e2d1;
      }
    </style>
  </defs>
  <path class="cls-1" d="M28.24,99.68c-8.75-4.2-15.64-10.28-20.68-18.23-5.04-7.95-7.56-17.42-7.56-28.39s2.52-20.46,7.56-28.46c5.04-8,11.93-14.1,20.68-18.31C36.98,2.1,46.74,0,57.51,0c10.08,0,19.29,1.9,27.65,5.71,8.35,3.81,15.14,9.32,20.38,16.53,5.24,7.21,8.25,15.76,9.04,25.64h-21.49l-1.04-4.15c-3.26-12.45-8.43-22.03-15.49-28.76-7.07-6.72-14.85-10.08-23.35-10.08-2.57,0-5.34.4-8.3,1.19-7.61,2.08-13.66,6.4-18.16,12.97-4.5,6.57-6.74,14.7-6.74,24.38,0,5.83.89,12.15,2.67,18.97,3.56,13.34,9.17,22.93,16.82,28.76,7.66,5.83,16.33,8.75,26.01,8.75,12.25,0,24.06-5.41,35.43-16.23,11.36-10.82,22.33-29.92,32.91-57.29l9.78-25.35h4.15l41.95,92.35c2.17,3.95,4.64,6.6,7.41,7.93,2.77,1.33,5.98,2,9.63,2v1.48h-50.84v-1.48c4.45,0,7.63-.39,9.56-1.19,1.93-.79,2.89-2.32,2.89-4.59,0-1.48-.25-2.91-.74-4.3-2.27-5.63-5.78-13.79-10.52-24.46-4.45.3-8.25,1.36-11.41,3.19-3.16,1.83-5.76,3.93-7.78,6.3-2.03,2.37-4.42,5.63-7.19,9.78l-2.96,5.04c-1.19,1.88-2.15,3.53-2.89,4.97-.74,1.43-1.11,2.5-1.11,3.19,0,.89.57,1.46,1.7,1.7,1.13.25,3.14.37,6,.37v1.48h-36.17v-1.48c2.47,0,4.92-1.31,7.34-3.93,2.42-2.62,5.61-6.99,9.56-13.12,4.84-7.61,10.82-12.75,17.94-15.41,7.12-2.67,15.71-4.15,25.79-4.45l-2.37-5.34c-3.66-8.1-6.67-14.92-9.04-20.45-2.37-5.53-4.65-11.31-6.82-17.34l-2.82,7.26c-9.49,25.2-20.51,44.08-33.05,56.62-12.55,12.55-27.33,18.82-44.32,18.82-10.77,0-20.53-2.1-29.28-6.3Z"/>
  <path class="cls-1" d="M310.98,33.2h-1.48c-3.46-7.41-6.94-13.19-10.45-17.34-3.51-4.15-7.56-7.16-12.16-9.04-4.59-1.88-10.25-2.82-16.97-2.82h-20.46v41.21h15.42c5.93,0,10.92-1.6,14.97-4.82,4.05-3.21,6.08-7.93,6.08-14.16h1.33v41.65h-1.33c0-6.23-2.03-10.94-6.08-14.16-4.05-3.21-9.04-4.82-14.97-4.82h-15.42v52.92h13.34c12.35,0,22.68-3.56,30.98-10.67,8.3-7.11,14.92-15.86,19.86-26.24h1.48l-8.15,39.87h-92.79v-1.48c3.46,0,6.74-.57,9.86-1.7,3.11-1.13,4.67-2.74,4.67-4.82V9.04c0-2.08-1.56-3.68-4.67-4.82-3.11-1.13-6.4-1.7-9.86-1.7v-1.48h91.75l5.04,32.17Z"/>
  <path class="cls-1" d="M362.86,4.3c-3.36,1.19-5.04,2.77-5.04,4.74v92.79h13.34c12.35,0,22.68-3.56,30.98-10.67,8.3-7.11,14.92-15.86,19.86-26.24h1.48l-8.15,39.87h-92.79v-1.48c3.46,0,6.74-.57,9.86-1.7,3.11-1.13,4.67-2.74,4.67-4.82V9.04c0-2.08-1.56-3.68-4.67-4.82-3.11-1.13-6.4-1.7-9.86-1.7v-1.48h49.95v1.48c-3.06,0-6.28.59-9.63,1.78Z"/>
  <path class="cls-1" d="M529.92,82.64c-3.95,7.76-9.31,13.59-16.08,17.49-6.77,3.9-14.45,5.85-23.05,5.85-10.08,0-19.05-2.1-26.9-6.3-7.86-4.2-13.98-10.25-18.38-18.16-4.4-7.9-6.6-17.19-6.6-27.87V9.04c0-2.08-1.56-3.68-4.67-4.82-3.11-1.13-6.4-1.7-9.86-1.7v-1.48h50.4v1.48c-3.06,0-6.28.59-9.63,1.78-3.36,1.19-5.04,2.77-5.04,4.74l.59,45.21c.1,10.77,1.83,19.57,5.19,26.38,3.36,6.82,7.61,11.74,12.75,14.75,5.14,3.02,10.53,4.52,16.16,4.52,7.21,0,13.69-1.75,19.42-5.26,5.73-3.51,10.28-8.7,13.64-15.56,3.36-6.87,5.04-15.09,5.04-24.68l-.15-40.91c0-4.05-2.89-6.89-8.67-8.52-5.78-1.63-12.92-2.45-21.42-2.45v-1.48h47.58v1.48c-3.56,0-6.8.77-9.71,2.3-2.92,1.53-4.52,4.13-4.82,7.78l.15,41.8c0,11.07-1.98,20.48-5.93,28.24Z"/>
  <path class="cls-1" d="M604.32,20.09c2.86,6.18,6.47,13.47,10.82,21.86,4.15,8.3,7.63,15.44,10.45,21.42,2.82,5.98,5.41,12.13,7.78,18.45L661.84,1.04h36.32v1.48c-3.46,0-6.74.57-9.86,1.7-3.11,1.14-4.67,2.74-4.67,4.82v87.75c0,1.98,1.68,3.56,5.04,4.74,3.36,1.19,6.57,1.78,9.63,1.78v1.48h-49.95v-1.48c3.46,0,6.74-.57,9.86-1.7,3.11-1.13,4.67-2.74,4.67-4.82V4.89l-35.28,99.91h-4.15l-47.58-99.16v84.64c0,8.7,7.56,13.04,22.68,13.04v1.48h-40.91v-1.48c5.04,0,8.72-.91,11.04-2.74,2.32-1.83,3.48-5.26,3.48-10.3V9.04c0-2.08-1.56-3.68-4.67-4.82-3.11-1.13-6.4-1.7-9.86-1.7v-1.48h38.84c2.37,6.52,4.99,12.87,7.86,19.05Z"/>
</svg>