<?xml version="1.0" encoding="UTF-8"?>
<svg id="Layer_1" data-name="Layer 1" xmlns="http://www.w3.org/2000/svg" viewBox="0 0 1629.28 237.29">
  <defs>
    <style>
      .cls-1 {
        fill: #e4e2d1;
      }
    </style>
  </defs>
  <g>
    <g>
      <g>
        <path class="cls-1" d="M640.35,112.42c-7.8,0-538.72,6.22-538.72,6.22,0,0,530.93,6.22,538.72,6.22s7.81-6.22,7.81-6.22c0,0-.02-6.22-7.81-6.22Z"/>
        <g>
          <path class="cls-1" d="M642.76,130.41c-2.58,2.57-46.79,50.89-46.79,50.89,0,0,48.32-44.22,50.89-46.78,2.57-2.58.52-4.64.52-4.64,0,0-2.06-2.05-4.63.53Z"/>
          <path class="cls-1" d="M642.76,106.88c-2.58-2.57-46.79-50.89-46.79-50.89,0,0,48.32,44.22,50.89,46.79,2.57,2.57.52,4.63.52,4.63,0,0-2.06,2.05-4.63-.53Z"/>
        </g>
      </g>
      <path class="cls-1" d="M692.88,118.64c0,11.47-9.29,20.76-20.76,20.76s-20.76-9.29-20.76-20.76,9.29-20.76,20.76-20.76,20.76,9.29,20.76,20.76Z"/>
    </g>
    <g>
      <g>
        <path class="cls-1" d="M988.93,112.42c7.8,0,538.72,6.22,538.72,6.22,0,0-530.93,6.22-538.72,6.22s-7.81-6.22-7.81-6.22c0,0,.02-6.22,7.81-6.22Z"/>
        <g>
          <path class="cls-1" d="M986.52,130.41c2.57,2.57,46.78,50.89,46.78,50.89,0,0-48.32-44.22-50.89-46.78-2.57-2.58-.52-4.64-.52-4.64,0,0,2.06-2.05,4.63.53Z"/>
          <path class="cls-1" d="M986.52,106.88c2.57-2.57,46.78-50.89,46.78-50.89,0,0-48.32,44.22-50.89,46.79-2.57,2.57-.52,4.63-.52,4.63,0,0,2.06,2.05,4.63-.53Z"/>
        </g>
      </g>
      <path class="cls-1" d="M936.39,118.64c0,11.47,9.3,20.76,20.76,20.76s20.76-9.29,20.76-20.76-9.3-20.76-20.76-20.76-20.76,9.29-20.76,20.76Z"/>
    </g>
  </g>
  <g>
    <path class="cls-1" d="M883.92,118.64c-51.62,0-69.27-17.66-69.27-69.27,0,51.62-17.67,69.27-69.29,69.27,51.62,0,69.29,17.67,69.29,69.28,0-51.61,17.65-69.28,69.27-69.28Z"/>
    <path class="cls-1" d="M816.5,82.85c0-1.1-1.87-76.24-1.87-76.24,0,0-1.87,75.14-1.87,76.24s1.87,1.1,1.87,1.1c0,0,1.87,0,1.87-1.1Z"/>
    <path class="cls-1" d="M790.65,92.01c-.78-.78-55.23-52.59-55.23-52.59,0,0,51.81,54.45,52.6,55.23.78.78,2.1-.54,2.1-.54,0,0,1.32-1.32.54-2.1Z"/>
    <path class="cls-1" d="M778.84,116.78c-1.1,0-76.24,1.87-76.24,1.87,0,0,75.14,1.87,76.24,1.87s1.11-1.87,1.11-1.87c0,0,0-1.87-1.11-1.87Z"/>
    <path class="cls-1" d="M788.01,142.64c-.78.78-52.59,55.23-52.59,55.23,0,0,54.45-51.81,55.23-52.59.78-.78-.54-2.1-.54-2.1,0,0-1.32-1.32-2.1-.54Z"/>
    <path class="cls-1" d="M812.77,154.44c0,1.1,1.87,76.24,1.87,76.24,0,0,1.86-75.14,1.86-76.24s-1.87-1.11-1.87-1.11c0,0-1.87,0-1.87,1.11Z"/>
    <path class="cls-1" d="M838.64,145.28c.78.78,55.23,52.59,55.23,52.59,0,0-51.81-54.45-52.59-55.22s-2.1.54-2.1.54c0,0-1.32,1.32-.54,2.1Z"/>
    <path class="cls-1" d="M850.44,120.51c1.1,0,76.24-1.87,76.24-1.87,0,0-75.14-1.86-76.24-1.86s-1.11,1.87-1.11,1.87c0,0,0,1.87,1.11,1.87Z"/>
    <path class="cls-1" d="M841.28,94.65c.78-.78,52.59-55.23,52.59-55.23,0,0-54.45,51.81-55.23,52.59-.78.78.54,2.1.54,2.1,0,0,1.32,1.32,2.1.54Z"/>
    <g>
      <path class="cls-1" d="M802.92,85.48c-.16-.4-13.05-26.63-13.05-26.63,0,0,9.44,27.66,9.6,28.06.16.39,1.89-.32,1.89-.32,0,0,1.72-.72,1.56-1.11Z"/>
      <path class="cls-1" d="M782.9,103.48c-.39-.17-28.05-9.6-28.05-9.6,0,0,26.23,12.88,26.62,13.05.4.16,1.11-1.56,1.11-1.56,0,0,.71-1.73.32-1.89Z"/>
      <path class="cls-1" d="M781.47,130.37c-.39.16-26.62,13.05-26.62,13.05,0,0,27.65-9.44,28.05-9.6.4-.17-.32-1.89-.32-1.89,0,0-.72-1.73-1.11-1.56Z"/>
      <path class="cls-1" d="M799.48,150.38c-.16.4-9.59,28.05-9.59,28.05,0,0,12.88-26.23,13.04-26.62.16-.4-1.56-1.11-1.56-1.11,0,0-1.73-.71-1.89-.32Z"/>
      <path class="cls-1" d="M826.36,151.81c.16.4,13.05,26.62,13.05,26.62,0,0-9.44-27.65-9.6-28.05-.16-.4-1.89.32-1.89.32,0,0-1.72.72-1.56,1.11Z"/>
      <path class="cls-1" d="M846.38,133.81c.4.16,28.06,9.59,28.06,9.59,0,0-26.24-12.87-26.63-13.04-.4-.17-1.11,1.56-1.11,1.56,0,0-.71,1.73-.32,1.89Z"/>
      <path class="cls-1" d="M847.81,106.93c.4-.17,26.62-13.05,26.62-13.05,0,0-27.66,9.44-28.05,9.61-.4.16.32,1.89.32,1.89,0,0,.72,1.72,1.11,1.56Z"/>
      <path class="cls-1" d="M829.81,86.91c.17-.39,9.59-28.05,9.59-28.05,0,0-12.88,26.23-13.04,26.63-.16.4,1.56,1.11,1.56,1.11,0,0,1.73.71,1.89.32Z"/>
    </g>
  </g>
</svg>