<?xml version="1.0" encoding="UTF-8"?>
<svg id="Layer_1" data-name="Layer 1" xmlns="http://www.w3.org/2000/svg" viewBox="0 0 1660.98 172.08">
  <defs>
    <style>
      .cls-1 {
        fill: #e4e2d1;
      }
    </style>
  </defs>
  <g>
    <g>
      <path class="cls-1" d="M1182.79,86.04c0,11.49-9.31,20.79-20.79,20.79s-20.8-9.31-20.8-20.79,9.31-20.8,20.8-20.8,20.79,9.31,20.79,20.8Z"/>
      <rect class="cls-1" x="1217.26" y="83.43" width="399.22" height="5.21"/>
      <path class="cls-1" d="M1189.71,86.04c0-6.49-2.25-12.46-5.99-17.18,37.77,14.84,96.05,17.18,96.05,17.18,0,0-58.28,2.34-96.04,17.18,3.74-4.72,5.99-10.68,5.99-17.18Z"/>
    </g>
    <g>
      <path class="cls-1" d="M478.19,86.04c0,11.49,9.31,20.79,20.79,20.79s20.8-9.31,20.8-20.79-9.31-20.8-20.8-20.8-20.79,9.31-20.79,20.8Z"/>
      <rect class="cls-1" x="44.5" y="83.43" width="399.22" height="5.21"/>
      <path class="cls-1" d="M471.27,86.04c0-6.49,2.25-12.46,5.99-17.18-37.77,14.84-96.05,17.18-96.05,17.18,0,0,58.27,2.34,96.04,17.18-3.74-4.72-5.99-10.68-5.99-17.18Z"/>
    </g>
  </g>
  <g>
    <path class="cls-1" d="M878.58,86.04c0,26.55-21.53,48.08-48.09,48.08s-48.08-21.53-48.08-48.08,21.53-48.08,48.08-48.08,48.09,21.53,48.09,48.08Z"/>
    <path class="cls-1" d="M1025.18,86.01c-.06-14.18-8.53-26.35-20.67-31.83,4.42-2.04,9.35-3.2,14.54-3.22,19.37-.09,35.14,15.55,35.23,34.92.09,19.37-15.55,35.14-34.92,35.23-5.19.02-10.12-1.1-14.56-3.1,12.09-5.58,20.45-17.83,20.39-32Z"/>
    <path class="cls-1" d="M1107.33,86.01c-.03-13.64-10.27-24.87-23.47-26.49,2.75-.91,5.69-1.41,8.75-1.42,15.43-.03,27.96,12.46,27.99,27.88.03,15.43-12.45,27.96-27.88,27.99-3.05,0-6-.49-8.75-1.39,13.2-1.67,23.4-12.94,23.37-26.58Z"/>
    <path class="cls-1" d="M907.98,69.83c-9.23,19.46-1.42,42.48,17.44,51.43,18.86,8.95,41.64.44,50.87-19.02,9.23-19.46,1.42-42.49-17.44-51.43-18.87-8.95-41.64-.44-50.88,19.02Z"/>
    <path class="cls-1" d="M635.8,86.01c.06-14.18,8.53-26.35,20.67-31.83-4.42-2.04-9.34-3.2-14.54-3.22-19.37-.09-35.14,15.55-35.23,34.92-.08,19.37,15.55,35.14,34.93,35.23,5.19.02,10.12-1.1,14.56-3.1-12.09-5.58-20.45-17.83-20.39-32Z"/>
    <path class="cls-1" d="M553.65,86.01c.03-13.64,10.27-24.87,23.47-26.49-2.75-.91-5.68-1.41-8.74-1.42-15.43-.03-27.96,12.46-27.99,27.88-.03,15.43,12.46,27.96,27.88,27.99,3.06,0,5.99-.49,8.76-1.39-13.2-1.67-23.4-12.94-23.37-26.58Z"/>
    <path class="cls-1" d="M752.99,69.83c9.23,19.46,1.43,42.48-17.44,51.43-18.86,8.95-41.64.44-50.87-19.02-9.23-19.46-1.42-42.49,17.44-51.43,18.87-8.95,41.64-.44,50.87,19.02Z"/>
  </g>
</svg>